<svg viewBox="0 0 1892 551" xmlns="http://www.w3.org/2000/svg"><g fill="#CE0176" fill-rule="evenodd"><g transform="translate(109 16.235)"><circle cx="21" cy="21" r="21"/><circle cx="21" cy="98" r="21"/><circle cx="21" cy="176" r="21"/><circle cx="21" cy="253" r="21"/></g><g transform="translate(217.765 32.47)"><circle cx="21" cy="21" r="21"/><circle cx="21" cy="98" r="21"/><circle cx="21" cy="176" r="21"/><circle cx="21" cy="253" r="21"/></g><g transform="translate(326.53 48.706)"><circle cx="21" cy="21" r="21"/><circle cx="21" cy="98" r="21"/><circle cx="21" cy="176" r="21"/><circle cx="21" cy="253" r="21"/></g><g transform="translate(435.294 64.941)"><circle cx="21" cy="21" r="21"/><circle cx="21" cy="98" r="21"/><circle cx="21" cy="176" r="21"/><circle cx="21" cy="253" r="21"/></g><g transform="translate(544.059 81.176)"><circle cx="21" cy="21" r="21"/><circle cx="21" cy="98" r="21"/><circle cx="21" cy="176" r="21"/><circle cx="21" cy="253" r="21"/></g><g transform="translate(652.824 97.412)"><circle cx="21" cy="21" r="21"/><circle cx="21" cy="98" r="21"/><circle cx="21" cy="176" r="21"/><circle cx="21" cy="253" r="21"/></g><g transform="translate(761.588 113.647)"><circle cx="21" cy="21" r="21"/><circle cx="21" cy="98" r="21"/><circle cx="21" cy="176" r="21"/><circle cx="21" cy="253" r="21"/></g><g transform="translate(870.353 129.882)"><circle cx="21" cy="21" r="21"/><circle cx="21" cy="98" r="21"/><circle cx="21" cy="176" r="21"/><circle cx="21" cy="253" r="21"/></g><g transform="translate(979.118 146.118)"><circle cx="21" cy="21" r="21"/><circle cx="21" cy="98" r="21"/><circle cx="21" cy="176" r="21"/><circle cx="21" cy="253" r="21"/></g><g transform="translate(1087.882 162.353)"><circle cx="21" cy="21" r="21"/><circle cx="21" cy="98" r="21"/><circle cx="21" cy="176" r="21"/><circle cx="21" cy="253" r="21"/></g><g transform="translate(1196.647 178.588)"><circle cx="21" cy="21" r="21"/><circle cx="21" cy="98" r="21"/><circle cx="21" cy="176" r="21"/><circle cx="21" cy="253" r="21"/></g><g transform="translate(1305.412 194.824)"><circle cx="21" cy="21" r="21"/><circle cx="21" cy="98" r="21"/><circle cx="21" cy="176" r="21"/><circle cx="21" cy="253" r="21"/></g><g transform="translate(1414.176 211.059)"><circle cx="21" cy="21" r="21"/><circle cx="21" cy="98" r="21"/><circle cx="21" cy="176" r="21"/><circle cx="21" cy="253" r="21"/></g><g transform="translate(1522.941 227.294)"><circle cx="21" cy="21" r="21"/><circle cx="21" cy="98" r="21"/><circle cx="21" cy="176" r="21"/><circle cx="21" cy="253" r="21"/></g><g transform="translate(1631.706 243.53)"><circle cx="21" cy="21" r="21"/><circle cx="21" cy="98" r="21"/><circle cx="21" cy="176" r="21"/><circle cx="21" cy="253" r="21"/></g><g transform="translate(1740.47 259.765)"><circle cx="21" cy="21" r="21"/><circle cx="21" cy="98" r="21"/><circle cx="21" cy="176" r="21"/><circle cx="21" cy="253" r="21"/></g><g transform="translate(1849.235 276)"><circle cx="21" cy="21" r="21"/><circle cx="21" cy="98" r="21"/><circle cx="21" cy="176" r="21"/><circle cx="21" cy="253" r="21"/></g><circle cx="21" cy="21" r="21"/><circle cx="21" cy="98" r="21"/><circle cx="21" cy="176" r="21"/><circle cx="21" cy="253" r="21"/></g></svg>