<svg viewBox="0 0 619 504" xmlns="http://www.w3.org/2000/svg"><g fill="none" fill-rule="evenodd"><path fill="#757B80" d="M387.638 493.769H230.847l8.97-67.462h140.131l7.69 67.462"/><path d="M.046 369.808v41.656c0 8.456 6.92 15.377 15.381 15.377h587.635c8.451 0 15.371-6.921 15.371-15.377v-41.656H.046" fill="#C0C8CB"/><path d="M618.433 16.077c0-8.458-6.92-15.378-15.371-15.378H15.427C6.966.699.046 7.619.046 16.077v353.731h618.387V16.077" fill="#343534"/><path fill="#C0C8CB" d="M230.847 493.769h156.791l27.576 6.518-211.947.157 27.58-6.675"/><path fill="#757B80" d="M413.771 503.91H204.707l-1.386-3.466 211.893-.157-1.443 3.623"/><path d="M320.241 400.141c0 6.074-4.925 10.998-10.999 10.998-6.083 0-11.002-4.924-11.002-10.998 0-6.078 4.919-11.004 11.002-11.004 6.074 0 10.999 4.926 10.999 11.004" fill="#343534"/></g></svg>