<svg viewBox="0 0 221 435" xmlns="http://www.w3.org/2000/svg"><g fill="none"><path d="M220.88 73.34c0 .789-.64 1.428-1.429 1.428h-4.643a1.43 1.43 0 0 1-1.429-1.428v-20c0-.789.64-1.429 1.429-1.429h4.643c.789 0 1.429.64 1.429 1.429v20zm0 72.82c0 .789-.64 1.428-1.429 1.428h-4.643a1.43 1.43 0 0 1-1.429-1.428V86.588c0-.789.64-1.429 1.429-1.429h4.643c.789 0 1.429.64 1.429 1.429v59.572z" fill="#666"/><path d="M217.93 419.29c0 7.796-6.321 14.117-14.118 14.117H15.532c-7.797 0-14.118-6.321-14.118-14.117V15.53c0-7.796 6.321-14.118 14.118-14.118h188.28c7.797 0 14.118 6.321 14.118 14.118v403.76z" stroke="#CCC" stroke-width="2.82" fill="#E6E6E6"/><path d="M216.38 110.16L2.88 369.66V266.5L185.52 2.91h17.542c7.733 0 14.004 6.271 14.004 14.004l-.681 93.246h-.005z" fill="#F2F2F2"/><path d="M136.17 16.912a4.5 4.5 0 0 1-4.5 4.5h-44a4.5 4.5 0 0 1 0-9h44a4.5 4.5 0 0 1 4.5 4.5z" fill="#666"/><path d="M137.17 417.41a5 5 0 0 1-5 5h-45a5 5 0 0 1-5-5v-10a5 5 0 0 1 5-5h45a5 5 0 0 1 5 5v10z" stroke="#B2B2B2" stroke-width="2" fill="#E6E6E6"/></g></svg>