<svg width="69" height="92" viewBox="0 0 69 92" xmlns="http://www.w3.org/2000/svg"><title>lines-and-angles_hold</title><path d="M62.1 22.627V12.533L48.3 9.11V.557L27.6 5.689v9.817c-8.756 1.403-12.4 8.044-13.448 13.386H0v41.06h14.376c1.149 3.442 4.12 6.843 9.774 6.843h3.45v9.516l20.7 5.132v-5.132l13.8-3.422V76.22c3.47-1.14 6.9-4.082 6.9-9.687v-34.22c0-5.608-3.43-8.547-6.9-9.686zm-6.9-4.75v4.171h-6.9v-5.882l6.9 1.711zm-20.7-6.843l6.9-1.71v12.724h-6.9V11.034zm0 65.761h6.9v5.882l-6.9-1.71v-4.172zm20.7.75l-6.9 1.71v-2.46h6.9v.75zm3.422-7.593H24.15c-2.78 0-3.409-1.882-3.45-3.422v-3.422H6.9V35.714h13.759l.041-3.384c.017-1.485.462-8.106 6.9-9.857v6.419h31.009c1.593.04 3.491.667 3.491 3.421v3.422h-6.9v6.843h6.9V46h-6.9v6.843h6.9v3.422h-6.9v6.843h6.9v3.422c0 2.748-1.887 3.377-3.478 3.422z" fill="#272729"/></svg>