<svg width="26" height="31" viewBox="0 0 26 31" xmlns="http://www.w3.org/2000/svg"><title>Shape</title><path d="M19.995 4.764c0 .739.589 1.339 1.314 1.339.727 0 1.315-.6 1.315-1.34 0-.739-.588-1.338-1.315-1.338-.725 0-1.314.6-1.314 1.339zm0 21.422c0 .739.589 1.339 1.314 1.339.727 0 1.315-.6 1.315-1.34 0-.739-.588-1.338-1.315-1.338-.725 0-1.314.599-1.314 1.339zM16.708 4.764c0 2.36 1.715 4.307 3.944 4.632v12.157c-2.229.326-3.944 2.273-3.944 4.633 0 2.588 2.06 4.686 4.601 4.686 2.542 0 4.602-2.098 4.602-4.686 0-2.36-1.715-4.307-3.944-4.633V9.397c2.229-.326 3.944-2.273 3.944-4.633 0-2.588-2.06-4.686-4.602-4.686-2.54 0-4.601 2.098-4.601 4.686zm7.888 21.422c0 1.848-1.471 3.347-3.287 3.347-1.814 0-3.286-1.499-3.286-3.347 0-1.849 1.472-3.347 3.286-3.347 1.816 0 3.287 1.498 3.287 3.347zm0-21.422c0 1.848-1.471 3.347-3.287 3.347-1.814 0-3.286-1.499-3.286-3.347 0-1.848 1.472-3.347 3.286-3.347 1.816 0 3.287 1.499 3.287 3.347zM10.135 26.186c0-2.36-1.715-4.307-3.944-4.633V9.397c2.229-.326 3.944-2.273 3.944-4.632 0-2.588-2.06-4.686-4.602-4.686-2.54 0-4.6 2.098-4.6 4.686 0 2.36 1.714 4.307 3.943 4.633v12.156c-2.229.325-3.944 2.273-3.944 4.633 0 2.588 2.06 4.686 4.601 4.686 2.542-.001 4.602-2.1 4.602-4.687zM2.247 4.764c0-1.848 1.472-3.347 3.286-3.347 1.816 0 3.287 1.499 3.287 3.347 0 1.848-1.472 3.347-3.287 3.347-1.814 0-3.286-1.499-3.286-3.347zm0 21.422c0-1.849 1.472-3.347 3.286-3.347 1.816 0 3.287 1.498 3.287 3.347 0 1.848-1.472 3.347-3.287 3.347-1.814 0-3.286-1.499-3.286-3.347zM6.848 4.764c0-.74-.589-1.339-1.315-1.339-.725 0-1.314.6-1.314 1.339s.588 1.339 1.314 1.339c.727 0 1.315-.6 1.315-1.34zm0 21.422c0-.74-.589-1.34-1.315-1.34-.725 0-1.314.6-1.314 1.34 0 .739.588 1.339 1.314 1.339.727 0 1.315-.6 1.315-1.34z" fill="#272729" fill-rule="evenodd"/></svg>