<svg viewBox="0 0 50 50" xmlns="http://www.w3.org/2000/svg"><g fill="#CE0176"><path d="M25 0C11.192 0 0 11.192 0 25s11.192 25 25 25 25-11.192 25-25S38.808 0 25 0zm0 46.094C13.35 46.094 3.906 36.65 3.906 25S13.35 3.906 25 3.906 46.094 13.35 46.094 25 36.65 46.094 25 46.094z"/><path d="M23.685 18.814c.46.644.692 1.42.692 2.324 0 .93-.235 1.68-.698 2.246-.263.316-.643.606-1.148.865.768.286 1.348.731 1.74 1.345.39.618.586 1.36.586 2.235 0 .903-.223 1.712-.672 2.428a4.235 4.235 0 0 1-1.065 1.205c-.479.37-1.05.623-1.701.763-.655.134-1.364.203-2.129.203H12.5v-15.24h7.283c1.836.025 3.139.567 3.902 1.626zm-8.179 1.024v3.357h3.662c.653 0 1.183-.125 1.595-.375.404-.255.61-.7.61-1.34 0-.713-.27-1.177-.809-1.407-.464-.159-1.06-.235-1.78-.235h-3.278zm0 5.885v4.06h3.656c.653 0 1.163-.092 1.526-.27.662-.332.992-.967.992-1.902 0-.795-.32-1.338-.962-1.634-.357-.165-.857-.25-1.504-.254h-3.708zm19.08-4.338c.778.354 1.42.908 1.928 1.668.453.674.751 1.45.888 2.333.077.516.109 1.259.095 2.232h-8.115c.046 1.136.437 1.926 1.17 2.382.442.283.977.423 1.601.423.664 0 1.204-.173 1.616-.517.23-.186.427-.441.603-.776h2.972c-.077.666-.439 1.348-1.08 2.04-.998 1.092-2.396 1.643-4.192 1.643-1.481 0-2.787-.463-3.923-1.388-1.132-.926-1.696-2.427-1.696-4.513 0-1.95.51-3.45 1.535-4.492 1.02-1.04 2.348-1.564 3.98-1.564.97 0 1.842.181 2.618.53zm-4.355 2.547c-.412.432-.669 1.011-.776 1.748h5.018c-.054-.784-.313-1.38-.779-1.783-.462-.405-1.037-.608-1.724-.608-.747 0-1.329.217-1.74.643zm-2.101-5.185h7.81v1.56h-7.81z"/></g></svg>