<svg viewBox="0 0 25 25" xmlns="http://www.w3.org/2000/svg"><path d="M12.398 0C5.55 0 0 5.596 0 12.5S5.55 25 12.398 25c6.847 0 12.397-5.596 12.397-12.5S19.245 0 12.398 0zm.516 1.055c5.864.265 10.558 5.012 10.823 10.924h-4.132c-.254-3.61-3.11-6.488-6.69-6.745v-4.18zm0 11.966h5.658c-.25 3.035-2.647 5.452-5.658 5.703V13.02zm5.658-1.042h-5.658V6.276c3.01.251 5.409 2.668 5.658 5.703zm-6.69 0H6.223c.249-3.035 2.647-5.452 5.657-5.703v5.703zm0-10.924v4.18C8.3 5.49 5.444 8.368 5.19 11.978H1.058C1.323 6.067 6.017 1.32 11.881 1.055zm0 22.89c-5.865-.264-10.56-5.012-10.824-10.924H5.19c.255 3.61 3.11 6.488 6.691 6.745v4.18zM6.223 13.021h5.657v5.703c-3.01-.251-5.408-2.668-5.657-5.703zm6.69 10.924v-4.18c3.581-.255 6.437-3.134 6.69-6.744h4.133c-.264 5.912-4.959 10.66-10.823 10.924z" fill="#272729" fill-rule="evenodd"/></svg>