<svg width="86" height="79" viewBox="0 0 86 79" xmlns="http://www.w3.org/2000/svg"><title>lines-and-angles_birth</title><path d="M43 .614c-23.748 0-43 15.308-43 39 0 23.693 19.252 39 43 39s43-15.307 43-39c0-23.692-19.252-39-43-39zm0 70.2c-20.714 0-35.182-12.83-35.182-31.2 0-18.369 14.468-31.2 35.182-31.2 2.435 0 4.773.191 7.02.535a7.675 7.675 0 0 1 .798 3.365c0 4.302-3.506 7.8-7.818 7.8a7.817 7.817 0 0 1-5.527-2.285l-5.532 5.518A15.621 15.621 0 0 0 43 27.914c8.635 0 15.636-6.985 15.636-15.6 0-.374-.082-.725-.11-1.092 12.049 4.727 19.656 15.093 19.656 28.392 0 18.37-14.468 31.2-35.182 31.2zm-15.636-31.2h7.818v7.8h-7.818v-7.8zm23.454 0h7.818v7.8h-7.818v-7.8z" fill="#272729"/></svg>