<svg viewBox="0 0 51 49" xmlns="http://www.w3.org/2000/svg"><g fill="#CE0176"><path d="M25.705 0C11.95 0 .8 10.754.8 24.021c0 13.267 11.15 24.021 24.905 24.021S50.61 37.288 50.61 24.022C50.61 10.753 39.46 0 25.705 0zm0 44.29c-11.606 0-21.014-9.075-21.014-20.269 0-11.194 9.408-20.268 21.014-20.268s21.014 9.074 21.014 20.268S37.31 44.29 25.705 44.29z"/><path d="M38.157 16.038c-.419.24-1.677.72-2.851.84.752-.421 1.867-1.802 2.142-2.898-.724.48-2.385 1.178-3.206 1.178 0 0 0 .003.002.004-.937-1.017-2.254-1.65-3.716-1.65-2.836 0-5.138 2.389-5.138 5.337 0 .409.047.806.132 1.189h-.001c-3.849-.103-8.348-2.106-10.884-5.536-1.556 2.8-.21 5.915 1.558 7.05-.603.049-1.719-.072-2.243-.6-.037 1.857.825 4.32 3.963 5.213-.606.338-1.673.242-2.14.167.165 1.571 2.28 3.624 4.593 3.624-.824.988-3.636 2.787-7.116 2.214 2.364 1.496 5.12 2.36 8.037 2.36 8.29 0 14.727-6.977 14.38-15.584l-.003-.03c0-.023.003-.047.003-.067 0-.027-.003-.053-.003-.08a9.043 9.043 0 0 0 2.491-2.73z"/></g></svg>