<svg xmlns="http://www.w3.org/2000/svg" viewBox="0 0 36 33"><g fill="#CE0176"><path d="M33.8.1H2.2C1 .1 0 1.1 0 2.3v28.5c0 1.2 1 2.1 2.2 2.1h31.6c1.2 0 2.1-.9 2.1-2.1V2.3c0-1.2-.9-2.2-2.1-2.2zm-6.5 3.6c0-.4.3-.8.8-.8h.8c.4 0 .7.4.7.8v.9c0 .5-.3.8-.7.8h-.8c-.5 0-.8-.3-.8-.8v-.9zm-3.7 0c0-.4.3-.8.7-.8h.8c.5 0 .8.4.8.8v.9c0 .5-.3.8-.8.8h-.8c-.4 0-.7-.3-.7-.8v-.9zm9.7 26.6H2.6V7.9h30.7v22.4zm.1-25.7c0 .5-.4.8-.8.8h-.8c-.5 0-.8-.3-.8-.8v-.9c0-.4.3-.8.8-.8h.8c.4 0 .8.4.8.8v.9z"/><path d="M7.7 19.9l5.8 2.7c.1.1.3.1.5.1s.4 0 .6-.1c.3-.2.5-.6.5-1 0-.5-.3-.9-.7-1l-3.6-1.7 3.6-1.7c.4-.2.7-.6.7-1v-.1c0-.4-.2-.7-.5-.9-.2-.1-.4-.2-.6-.2-.2 0-.4 0-.5.1l-5.8 2.7c-.4.2-.6.6-.6 1v.1c0 .4.2.9.6 1zm7.4 5.5c.2.3.6.5.9.5h.1c.5 0 .9-.3 1-.8l3.8-11.8c.2-.4.1-.8-.1-1.1-.2-.2-.6-.4-.9-.4-.5 0-1 .3-1.1.8L15 24.4c-.1.4-.1.8.1 1zm5.7-9.2c0 .4.3.8.7 1l3.6 1.7-3.6 1.7c-.4.1-.7.5-.7 1 0 .4.2.8.6 1 .1.1.3.1.6.1.1 0 .3 0 .4-.1l5.8-2.7c.4-.1.7-.6.7-1v-.1c0-.4-.3-.8-.7-1l-5.8-2.7c-.1-.1-.3-.1-.4-.1-.3 0-.5.1-.6.2-.4.2-.6.5-.6.9v.1z"/></g></svg>