<svg viewBox="0 0 50 49" xmlns="http://www.w3.org/2000/svg"><g fill="#CE0176"><path d="M24.905 0C11.15 0 0 10.754 0 24.021c0 13.267 11.15 24.021 24.905 24.021S49.81 37.288 49.81 24.022C49.81 10.753 38.66 0 24.905 0zm0 44.29c-11.606 0-21.014-9.075-21.014-20.269 0-11.194 9.408-20.268 21.014-20.268s21.014 9.074 21.014 20.268S36.51 44.29 24.905 44.29z"/><path d="M30.815 20.344h-4.332v-3.05c0-.935 1.003-1.152 1.471-1.152h2.799v-4.115l-3.208-.016c-4.376 0-5.375 3.068-5.375 5.036v3.297h-3.175v4.24h3.175v11.448h4.313V24.584h3.663l.67-4.24z"/></g></svg>