<svg viewBox="0 0 61 64" xmlns="http://www.w3.org/2000/svg"><path d="M.756 9.987l41.455 12.226a1.053 1.053 0 0 0 .834-.1l16.834-9.71c.37-.212.57-.621.51-1.036a1.044 1.044 0 0 0-.78-.859L18.154.033a1.068 1.068 0 0 0-.718.07L.602 8.061A1.03 1.03 0 0 0 .01 9.075c.033.426.33.788.746.912zM18.002 2.13l38.611 9.756L42.376 20.1 3.961 8.77l14.041-6.64z"/><path d="M58.814 14.723l-16.438 9.482L1.36 12.108a1.055 1.055 0 0 0-1.31.694 1.032 1.032 0 0 0 .706 1.288l41.893 12.356 17.23-9.939c.503-.288.67-.922.375-1.415a1.06 1.06 0 0 0-1.44-.37z"/><path d="M58.814 18.828l-16.438 9.483L1.36 16.214a1.057 1.057 0 0 0-1.31.694 1.032 1.032 0 0 0 .706 1.288l41.892 12.355 17.23-9.939c.503-.289.67-.923.375-1.415a1.058 1.058 0 0 0-1.439-.369z"/><path d="M58.814 22.931l-16.438 9.484L1.36 20.317a1.055 1.055 0 0 0-1.31.694A1.032 1.032 0 0 0 .756 22.3l41.892 12.356 17.23-9.94c.503-.288.67-.922.375-1.415a1.062 1.062 0 0 0-1.439-.369z"/><path d="M58.814 27.037L42.376 36.52 1.36 24.421a1.055 1.055 0 0 0-1.31.695 1.031 1.031 0 0 0 .706 1.288L42.648 38.76l17.23-9.94c.503-.288.67-.923.375-1.415a1.06 1.06 0 0 0-1.439-.369z"/><path d="M58.814 31.14l-16.438 9.484L1.36 28.527a1.056 1.056 0 0 0-1.31.694 1.032 1.032 0 0 0 .706 1.289l41.892 12.355 17.23-9.939c.503-.289.67-.923.375-1.415a1.06 1.06 0 0 0-1.439-.37z"/><path d="M58.814 35.246L42.375 44.73 1.36 32.631a1.055 1.055 0 0 0-1.31.694 1.032 1.032 0 0 0 .706 1.289L42.649 46.97l17.23-9.94c.503-.288.67-.922.375-1.415a1.062 1.062 0 0 0-1.44-.369z"/><path d="M58.814 39.352l-16.438 9.483L1.36 36.736a1.055 1.055 0 0 0-1.31.695 1.032 1.032 0 0 0 .706 1.288l41.892 12.356 17.23-9.94c.503-.289.67-.922.375-1.415a1.06 1.06 0 0 0-1.439-.368z"/><path d="M58.814 43.455l-16.438 9.483L1.36 40.84a1.057 1.057 0 0 0-1.31.694 1.032 1.032 0 0 0 .706 1.289l41.892 12.355 17.23-9.94a1.02 1.02 0 0 0 .375-1.414 1.06 1.06 0 0 0-1.439-.369z"/><path d="M58.814 47.551l-16.438 9.483L1.36 44.936a1.057 1.057 0 0 0-1.31.694 1.031 1.031 0 0 0 .706 1.289l41.892 12.355 17.23-9.94a1.02 1.02 0 0 0 .375-1.414 1.061 1.061 0 0 0-1.439-.369z"/><path d="M58.814 51.656l-16.438 9.483L1.36 49.042a1.055 1.055 0 0 0-1.31.694 1.032 1.032 0 0 0 .706 1.288L42.648 63.38l17.23-9.939c.503-.289.67-.923.375-1.415a1.06 1.06 0 0 0-1.439-.37z"/></svg>