<svg viewBox="0 0 51 49" xmlns="http://www.w3.org/2000/svg"><g fill="#CE0176"><path d="M25.505 0C11.75 0 .6 10.754.6 24.021c0 13.267 11.15 24.021 24.905 24.021S50.41 37.288 50.41 24.022C50.41 10.753 39.26 0 25.505 0zm0 44.29c-11.606 0-21.014-9.075-21.014-20.269 0-11.194 9.408-20.268 21.014-20.268s21.014 9.074 21.014 20.268S37.11 44.29 25.505 44.29z"/><path d="M13.062 36.022h4.67V18.006h-4.67v18.016zM31.74 18.006c-3.997.064-5.964 2.875-6.226 3.002v-3.002h-4.67v18.016h4.67v-10.51c0-.385.985-3.472 4.67-3.002 1.979.124 3.046 2.649 3.113 3.002v10.51l4.651.02V23.57c-.164-1.8-1.097-5.5-6.208-5.564zM15.396 12c-1.289 0-2.334 1.008-2.334 2.252 0 1.245 1.045 2.252 2.334 2.252 1.29 0 2.335-1.007 2.335-2.252 0-1.244-1.045-2.252-2.335-2.252z"/></g></svg>