<svg width="1073" height="1298" viewBox="0 0 1073 1298" xmlns="http://www.w3.org/2000/svg"><title>splat</title><g fill="#009DC9" fill-rule="evenodd"><path d="M1051.551 93.412c-24.216-6.146-51.846 11.984-72.958 20.895-32.908 14.441-65.817 28.883-99.036 43.325-36.324 15.979-72.647 31.957-108.66 47.628-23.285 2.766-44.707 11.984-65.507 23.046-6.52-1.537-13.66-1.23-20.49-1.23-9.004.308-21.112 2.152-25.458-8.603 14.591-11.984 34.15-19.973 50.294-26.733 20.49-8.296 52.157-20.588 45.017-48.55-2.484-9.525-9.935-16.592-20.18-17.514-12.419-.922-22.664 7.682-31.357 15.363-19.248 17.208-38.497 34.415-57.435 51.623-.93-.922-1.862-1.844-2.483-3.073-5.899-7.99-6.83-19.051 3.104-27.655 9.935-8.603 19.87-51.315 10.556-45.784-9.314 5.224-23.905 16.286-28.252 23.66-4.346 7.375-5.588 16.593-19.248 13.828-13.66-2.766-25.768-3.995-32.598-15.979-.621-1.229-1.242-2.15-1.863-3.072 5.899-11.984 12.108-23.66 18.007-35.644 10.866-11.37 22.663-21.51 34.77-31.65 7.762-6.452 14.903-14.134 14.282-24.582-.31-8.603-5.899-16.9-14.902-18.744-10.866-1.843-18.317 6.76-23.284 14.75-9.935 16.593-18.628 34.107-27.32 51.93-8.694 9.218-16.455 19.05-23.906 29.19-9.003-1.536-17.075-2.765-18.007-13.212-1.242-12.599-4.346-21.817-13.97-22.431-9.314-.615-12.108 6.76-16.455 11.369-4.346 4.609-7.14 12.598-22.663 13.213-4.036 0-7.762.307-10.866.614-3.105-.307-6.52-.614-10.866-.614-15.523-.615-18.317-8.604-22.664-13.213-4.346-4.61-7.14-11.984-16.454-11.37-9.314.615-12.729 9.833-13.97 22.432-.932 10.447-9.004 11.369-17.697 12.905-3.105-11.984-4.967-25.504-8.382-30.42-6.83-8.911-20.18-14.75-31.357-10.447-11.487 4.609-14.591 16.9-10.245 27.654 3.105 7.99 9.935 13.52 13.97 21.202 3.105 5.839 4.037 12.291 3.105 18.744-6.52 3.995-14.902 5.224-23.905 7.068-13.66 2.765-14.902-6.453-19.248-13.828-4.347-7.375-19.249-18.436-28.252-23.66-9.314-5.224-18.628-2.458-22.043 11.062-3.415 13.52 22.353 26.426 32.599 35.03 9.934 8.603 9.313 19.665 3.104 27.654-5.588 7.682-11.176 8.911-14.281 21.817-38.497-4.917-75.131-21.202-108.35-41.79-24.837-15.364-48.121-32.878-71.406-49.779C89.75 109.083 66.776 85.73 46.596 89.724c-17.075 3.38-20.8 23.66-12.418 36.874 5.588 8.296 14.902 12.905 23.905 17.207 13.04 6.145 26.079 11.676 39.118 17.515l81.03 36.258c13.97 6.146 27.94 12.598 41.601 18.744 5.899 2.765 12.108 5.224 18.007 8.296 1.552.615 2.794 1.537 4.346 2.459-4.967.614-9.935 1.536-14.281 4.302-8.382 4.916-4.036 5.838-12.729 8.603-8.693 2.766-18.317 1.23-22.353 13.828-4.036 12.29 13.66 20.894 23.285 22.43 9.624 1.537 12.107.615 32.908 3.995 17.386 2.766 17.696 20.895 18.317 37.488-16.144 3.38-34.771.922-49.984-.615-26.7-3.072-53.399-5.838-80.408-8.91-28.563-3.073-57.435-6.453-85.998-9.526-16.454-1.844-40.67-6.453-49.052 12.598-6.52 15.364 6.52 26.733 21.111 27.655 11.798.922 23.905-1.536 35.703-2.458 14.281-.922 28.562-1.537 42.843-1.537a631.142 631.142 0 0 1 83.514 4.61c8.692.921 59.608 6.145 62.712 21.816-2.483 2.458-4.657 5.224-5.898 8.297-4.657 12.905-13.35 28.883-22.664 45.169-9.314 15.978-10.555 30.42-.931 37.795 9.314 7.682 15.833 4.302 17.696 15.056 1.863 10.755-8.072 31.957-20.8 48.243-12.73 16.285-35.083 35.95-48.743 45.784-13.66 9.833-34.771 25.504-46.569 30.727-11.797 5.224-28.562 18.13-37.565 32.264-9.004 14.442-11.177 28.884 3.415 36.566 27.63 14.442 36.634-15.364 43.154-28.884 6.83-13.52 14.591-20.895 26.389-34.415 11.797-13.52 48.742-43.018 63.954-50.7 14.902-7.682 19.249-3.073 29.804 7.067 10.866 10.14 24.526 10.755 36.324 10.447 12.108-.307 9.314 14.75 4.036 30.42-5.588 15.672-7.451 19.666.62 23.968 8.073 4.302 19.56-21.202 26.39-31.035 7.14-9.832 20.49-9.218 34.771-2.458.931.308 1.552.922 2.484 1.23 2.483 11.369 1.863 23.045-1.863 34.107-.931 1.229-1.552 2.458-2.484 3.687-2.794 4.302-4.967 8.911-6.83 13.828-3.415 4.609-7.761 8.603-12.418 12.29-9.935 7.375-21.111 13.214-25.768 25.197-3.726 9.526-2.794 21.51 5.278 28.577 7.761 6.76 18.627 6.453 27.32 1.536 12.418-7.374 15.523-20.894 17.075-34.415.932-9.832 3.105-19.05 6.83-27.654 2.484-3.995 4.657-7.99 6.52-12.599 3.105-5.223 7.14-9.525 11.797-13.827 8.693.307 16.144 9.525 17.697 17.822 2.173 12.905-4.347 26.733-9.314 38.102-9.935 23.046-20.49 45.784-30.425 68.83-9.935 22.43-23.595 45.784-30.425 69.137-3.726 12.905 3.725 26.425 18.627 24.582 17.386-2.458 19.56-19.973 21.112-34.108 2.483-21.202 6.83-42.404 13.35-62.684 10.865-33.186 27.32-64.22 48.43-92.183 10.246 14.75 21.423 32.572 19.87 47.32-2.483 20.588 18.628 65.758-7.45 546.337-1.864 32.878-1.243 53.158 29.803 57.153 31.046-3.995 31.667-24.275 29.804-57.153-26.078-480.58-4.967-525.749-7.45-546.336-2.484-20.588 14.28-46.399 33.84-62.684 19.558-15.979 48.43-39.332 62.712-45.784 14.281-6.76 27.63-7.375 34.771 2.458 7.14 9.833 18.317 35.336 26.39 31.035 8.071-4.302 6.209-8.297.62-23.968-5.588-15.671-8.072-30.728 4.036-30.42 11.487.307 25.458-.308 36.324-10.448s14.902-14.749 29.804-7.067 52.157 37.18 63.954 50.7c11.798 13.52 41.912 77.741 69.543 63.3 14.592-7.683-22.353-63.607-34.15-68.83-11.798-5.224-32.909-21.202-46.569-30.728-2.794-1.844-5.899-4.302-9.314-7.067 17.386 12.29 51.226 35.336 62.713 12.29 5.278-10.447-2.173-19.972-10.556-25.503-16.144-10.448-34.46-18.437-51.225-27.655l-58.677-31.342c-1.552-4.61-2.484-8.604-2.484-12.291 39.118-9.833 80.099-12.906 120.458-7.99 24.526 3.073 48.742 8.912 72.027 16.9 17.385 6.146 35.702 12.906 53.709 5.225 36.634-15.364 19.248-59.612-14.281-65.143-22.353-3.687-46.569 5.531-68.301 9.526a792.648 792.648 0 0 1-76.062 10.14 720.544 720.544 0 0 1-63.024 2.765c1.242-7.374-1.241-16.9-7.14-27.04a389.329 389.329 0 0 1-12.108-22.124c21.422 1.23 42.843 2.458 64.265 3.995 12.729.922 58.677 7.067 51.536-19.973-2.173-8.911-10.866-12.291-19.559-12.598-16.454-.615-34.15 3.072-50.294 4.609-18.317 1.843-36.324 3.687-54.64 5.223-.622-1.536-1.243-2.765-1.553-4.301-4.657-12.906-28.873-18.13-26.079-42.405.932-8.296.621-17.822 1.863-26.118 22.974-17.515 46.258-34.108 69.853-50.393 79.478-38.102 163.612-66.679 250.23-84.808 23.285-4.917 56.504-5.224 71.095-26.733 11.798-16.593 6.52-40.56-14.902-45.784zM619.082 49.164c2.794-7.067 4.036-7.067 3.415 0-1.863 2.766-4.346 5.224-7.14 7.375l3.725-7.375z"/><path d="M238.15 112.156c1.24 0 2.483-.308 3.414-.922 10.866 5.223 25.147-7.068 21.732-19.359-1.862-7.067-8.072-11.983-14.902-14.134a30.792 30.792 0 0 0-10.555-.922c-4.036.307-9.625.922-13.04 3.073-6.209 3.994-5.588 13.827-2.794 19.665 2.173 6.146 9.004 12.906 16.144 12.599zm25.146 523.904c-11.487 0-10.245 17.515.932 17.515 11.487 0 10.555-17.515-.932-17.515zM417.905 72.21c11.487 0 10.245-17.515-.932-17.515-11.487 0-10.555 17.515.932 17.515zm-270.41 313.114c.621-4.302-4.657-7.375-8.693-6.76-1.242.307-2.483.614-3.725 1.229-2.794 1.229-5.278 3.072-7.762 4.609-11.176 7.067-25.457 8.91-38.807 8.91-13.35 0-27.01-1.228-40.36.923-8.382 1.229-50.604 24.274-26.389 27.347 42.223 5.531 86.308-5.53 120.769-30.42 2.483-1.537 4.657-3.38 4.967-5.838zm720.265-6.454v-1.536c-.621-3.687-3.105-7.681-7.141-7.989-4.657-.614-9.314-.922-14.281-1.536-9.003-.922-13.97 8.604-7.762 15.056.932 1.23 1.863 2.151 3.105 3.38.62.922.931 1.844 1.863 2.766.62.614 1.552 1.229 2.173 1.844.62.614.931 1.229 1.552 1.536 3.105 3.38 9.624 2.765 12.419-.615.31-.307.62-.921.931-1.229 4.346-.614 7.761-4.609 7.451-9.218.31-.922 0-1.844-.31-2.458zm-128.22-41.789c27.32-17.514 54.33-34.722 81.65-52.237 12.42-7.989 46.88-25.196 29.184-44.247-17.075-18.437-37.566 5.838-48.742 17.207-21.732 22.124-69.853 84.194-62.092 79.277zM942.638 1.901c-37.566 35.644-75.131 71.288-112.697 107.24-3.105.614 120.458-39.64 138.154-95.87 2.794-9.526-19.559-16.9-25.457-11.37zm-61.471 83.886c11.487-11.062 22.974-22.124 34.771-32.878-9.624 12.598-21.422 23.66-34.771 32.878z"/></g></svg>