<?xml version="1.0" encoding="UTF-8"?>
<svg width="604px" height="485px" viewBox="0 0 604 485" version="1.1" xmlns="http://www.w3.org/2000/svg" xmlns:xlink="http://www.w3.org/1999/xlink">
    <!-- Generator: Sketch 45.1 (43504) - http://www.bohemiancoding.com/sketch -->
    <title>device-desktop</title>
    <desc>Created with Sketch.</desc>
    <defs>
        <polygon id="path-1" points="0.793 0.85 375.387 0.85 375.387 484.706341 0.793 484.706341"></polygon>
        <polygon id="path-3" points="0.793 0.85 375.387 0.85 375.387 484.706341 0.793 484.706341"></polygon>
        <polygon id="path-5" points="0.793 0.85 375.387 0.85 375.387 484.706341 0.793 484.706341"></polygon>
        <polygon id="path-7" points="0.793 0.85 375.387 0.85 375.387 484.706341 0.793 484.706341"></polygon>
        <polygon id="path-9" points="0.793 0.85 375.387 0.85 375.387 484.706341 0.793 484.706341"></polygon>
        <polygon id="path-11" points="0.793 0.85 375.387 0.85 375.387 484.706341 0.793 484.706341"></polygon>
        <polygon id="path-13" points="0.793 0.85 375.387 0.85 375.387 484.706341 0.793 484.706341"></polygon>
        <polygon id="path-15" points="0.793 0.85 375.387 0.85 375.387 484.706341 0.793 484.706341"></polygon>
        <polygon id="path-17" points="0.793 0.85 375.387 0.85 375.387 484.706341 0.793 484.706341"></polygon>
        <polygon id="path-19" points="0.793 0.85 375.387 0.85 375.387 484.706341 0.793 484.706341"></polygon>
        <polygon id="path-21" points="0.793 0.85 375.387 0.85 375.387 484.706341 0.793 484.706341"></polygon>
        <polygon id="path-23" points="0.793 0.85 375.387 0.85 375.387 484.706341 0.793 484.706341"></polygon>
        <polygon id="path-25" points="0.793 0.85 375.387 0.85 375.387 484.706341 0.793 484.706341"></polygon>
        <linearGradient x1="50%" y1="0%" x2="50%" y2="100%" id="linearGradient-27">
            <stop stop-color="#D7D7D7" offset="0%"></stop>
            <stop stop-color="#ABABAB" offset="100%"></stop>
        </linearGradient>
        <polygon id="path-28" points="0.793 0.85 375.387 0.85 375.387 484.706341 0.793 484.706341"></polygon>
        <linearGradient x1="50%" y1="0%" x2="50%" y2="100%" id="linearGradient-30">
            <stop stop-color="#AEA6A6" offset="0%"></stop>
            <stop stop-color="#DEDDDC" offset="100%"></stop>
        </linearGradient>
        <polygon id="path-31" points="0.793 0.85 375.387 0.85 375.387 484.706341 0.793 484.706341"></polygon>
        <linearGradient x1="0%" y1="50%" x2="100%" y2="50%" id="linearGradient-33">
            <stop stop-color="#6C6C6C" offset="0%"></stop>
            <stop stop-color="#505050" offset="100%"></stop>
        </linearGradient>
        <polygon id="path-34" points="0.793 0.85 375.387 0.85 375.387 484.706341 0.793 484.706341"></polygon>
        <linearGradient x1="0%" y1="50%" x2="100%" y2="50%" id="linearGradient-36">
            <stop stop-color="#C9CBC9" offset="0%"></stop>
            <stop stop-color="#BCBDBE" offset="100%"></stop>
        </linearGradient>
        <polygon id="path-37" points="0.793 0.85 375.387 0.85 375.387 484.706341 0.793 484.706341"></polygon>
        <polygon id="path-39" points="0.793 0.85 375.387 0.85 375.387 484.706341 0.793 484.706341"></polygon>
        <linearGradient x1="50%" y1="0%" x2="50%" y2="100%" id="linearGradient-41">
            <stop stop-color="#9D9F9D" offset="0%"></stop>
            <stop stop-color="#C4C1C4" offset="100%"></stop>
        </linearGradient>
        <linearGradient x1="50%" y1="0%" x2="50%" y2="100%" id="linearGradient-42">
            <stop stop-color="#E2E5E5" stop-opacity="0.317566803" offset="0%"></stop>
            <stop stop-color="#EFEEEE" offset="100%"></stop>
        </linearGradient>
        <polygon id="path-43" points="0.793 0.85 375.387 0.85 375.387 484.706341 0.793 484.706341"></polygon>
        <linearGradient x1="50%" y1="0%" x2="50%" y2="100%" id="linearGradient-45">
            <stop stop-color="#3C3C3C" offset="0%"></stop>
            <stop stop-color="#474747" offset="100%"></stop>
        </linearGradient>
        <polygon id="path-46" points="0.793 0.85 375.387 0.85 375.387 484.706341 0.793 484.706341"></polygon>
        <linearGradient x1="50%" y1="0%" x2="50%" y2="100%" id="linearGradient-48">
            <stop stop-color="#EEEEEE" offset="0%"></stop>
            <stop stop-color="#D5D5D5" offset="100%"></stop>
        </linearGradient>
        <polygon id="path-49" points="0.793 0.85 375.387 0.85 375.387 484.706341 0.793 484.706341"></polygon>
        <polygon id="path-51" points="0.793 0.85 375.387 0.85 375.387 484.706341 0.793 484.706341"></polygon>
        <polygon id="path-53" points="0.793 0.85 375.387 0.85 375.387 484.706341 0.793 484.706341"></polygon>
        <polygon id="path-55" points="0.793 0.85 375.387 0.85 375.387 484.706341 0.793 484.706341"></polygon>
        <linearGradient x1="50%" y1="0%" x2="50%" y2="100%" id="linearGradient-57">
            <stop stop-color="#F1EEF0" offset="0%"></stop>
            <stop stop-color="#ECEAEA" offset="100%"></stop>
        </linearGradient>
        <linearGradient x1="0%" y1="50%" x2="100%" y2="50%" id="linearGradient-58">
            <stop stop-color="#000000" offset="0%"></stop>
            <stop stop-color="#000000" offset="78.4757653%"></stop>
            <stop stop-color="#D1D3D2" stop-opacity="0" offset="100%"></stop>
        </linearGradient>
    </defs>
    <g id="Page-1" stroke="none" stroke-width="1" fill="none" fill-rule="evenodd">
        <g id="device-desktop">
            <g transform="translate(0.000000, 1.000000)" fill-rule="nonzero" id="Rectangle-15" fill="#009DC9">
                <rect x="0" y="0" width="604" height="484"></rect>
            </g>
            <path d="M222.941,469.68 C220.661,469.68 218.382,469.192 216.263,468.216 L6.776,371.723 C-2.277,367.553 -2.253,354.677 6.816,350.541 L228.793,249.293 L228.793,468.473 C228.793,468.505 228.793,468.537 228.793,468.569 C226.913,469.31 224.927,469.68 222.941,469.68" id="Fill-1" fill="#1088AA" fill-rule="nonzero"></path>
            <path d="M395.971,384.143 L332.829,412.943 C328.535,414.901 327.875,420.729 331.622,423.598 L398.559,474.848 C405.118,479.87 413.912,480.866 421.427,477.438 L517.509,433.613 C522.691,431.25 523.516,420.781 518.102,419.009 L400.511,383.889 C399.02,383.401 397.399,383.491 395.971,384.143" id="Fill-3" fill="#E9E1D9" fill-rule="nonzero"></path>
            <path d="M400.511,383.889 C399.02,383.401 397.399,383.491 395.971,384.143 L332.829,412.943 C328.535,414.901 327.875,420.729 331.622,423.597 L398.559,474.848 C404.117,479.103 411.276,480.455 417.905,478.688 L417.905,389.084 L400.511,383.889" id="Fill-4" fill="#D4CCC5" fill-rule="nonzero"></path>
            <path d="M400.511,383.889 C399.02,383.401 397.399,383.491 395.971,384.143 L332.829,412.943 C328.535,414.901 327.875,420.729 331.622,423.597 L398.559,474.848 C399.366,475.466 400.208,476.022 401.076,476.517 L401.076,384.058 L400.511,383.889" id="Fill-5" fill="#94928B" fill-rule="nonzero"></path>
            <path d="M395.971,379.808 L332.829,408.608 C328.535,410.566 327.875,416.393 331.622,419.263 L398.559,470.513 C405.118,475.535 413.912,476.531 421.427,473.103 L517.509,429.279 C522.691,426.915 522.273,419.418 516.859,417.646 L400.511,379.554 C399.02,379.066 397.399,379.157 395.971,379.808" id="Fill-6" fill="#BCB8B1" fill-rule="nonzero"></path>
            <g id="Fill-7-Clipped" transform="translate(228.000000, 0.000000)">
                <mask id="mask-2" fill="white">
                    <use xlink:href="#path-1"></use>
                </mask>
                <g id="path-1"></g>
                <path d="M179.361,381.903 C177.869,381.414 176.248,381.505 174.82,382.156 L111.678,410.956 C107.385,412.915 105.063,421.219 108.81,424.088 L149.515,454.617 L237.416,400.91 L179.361,381.903" id="Fill-7" fill="#A4A19A" fill-rule="nonzero" mask="url(#mask-2)"></path>
            </g>
            <g id="Fill-9-Clipped" transform="translate(228.000000, 0.000000)">
                <mask id="mask-4" fill="white">
                    <use xlink:href="#path-3"></use>
                </mask>
                <g id="path-1"></g>
                <path d="M0.793,178.586 L0.793,468.473 C0.793,477.236 14.668,487.596 22.641,483.959 L361.422,321.196 C365.712,319.239 368.466,314.958 368.466,310.242 L375.387,12.115 C375.387,3.352 359.402,-1.579 351.429,2.057 L14.518,157.241 C6.157,161.054 0.793,169.397 0.793,178.586" id="Fill-9" fill="#BCB8B1" fill-rule="nonzero" mask="url(#mask-4)"></path>
            </g>
            <g id="Fill-11-Clipped" transform="translate(228.000000, 0.000000)">
                <mask id="mask-6" fill="white">
                    <use xlink:href="#path-5"></use>
                </mask>
                <g id="path-1"></g>
                <path d="M14.25,157.375 C6.046,161.243 0.793,169.497 0.793,178.586 L0.793,468.473 C0.793,477.236 14.668,487.596 22.641,483.959 L56.3,467.788 L56.3,163.799 L14.25,157.375" id="Fill-11" fill="#AAA6A0" fill-rule="nonzero" mask="url(#mask-6)"></path>
            </g>
            <g id="Fill-12-Clipped" transform="translate(228.000000, 0.000000)">
                <mask id="mask-8" fill="white">
                    <use xlink:href="#path-7"></use>
                </mask>
                <g id="path-1"></g>
                <path d="M9.403,183.854 L9.403,473.74 C9.403,482.503 18.466,488.331 26.439,484.694 L370.033,326.463 C374.323,324.506 377.076,320.225 377.076,315.509 L377.076,18.279 C377.076,9.516 368.013,3.688 360.04,7.325 L23.128,162.508 C14.768,166.321 9.403,174.664 9.403,183.854" id="Fill-12" fill="#1F262D" fill-rule="nonzero" mask="url(#mask-8)"></path>
            </g>
            <g id="Fill-13-Clipped" transform="translate(228.000000, 0.000000)">
                <mask id="mask-10" fill="white">
                    <use xlink:href="#path-9"></use>
                </mask>
                <g id="path-1"></g>
                <path d="M9.403,473.74 C9.403,482.503 18.466,488.331 26.439,484.694 L370.033,326.463 C374.323,324.506 377.076,320.225 377.076,315.509 L377.076,276.433 L9.403,445.646 L9.403,473.74" id="Fill-13" fill="#E9E1D9" fill-rule="nonzero" mask="url(#mask-10)"></path>
            </g>
            <g id="Fill-14-Clipped" transform="translate(228.000000, 0.000000)">
                <mask id="mask-12" fill="white">
                    <use xlink:href="#path-11"></use>
                </mask>
                <g id="path-1"></g>
                <path d="M21.44,485.794 C15.104,485.793 9.403,480.69 9.403,473.74 L9.403,469.395 C9.403,476.346 15.104,481.449 21.441,481.449 C23.093,481.449 24.79,481.102 26.439,480.349 L370.033,322.118 C374.323,320.161 377.076,315.88 377.076,311.164 L377.076,315.509 C377.076,320.225 374.323,324.506 370.033,326.463 L26.439,484.694 C24.79,485.446 23.094,485.794 21.44,485.794" id="Fill-14" fill="#CAC5BE" fill-rule="nonzero" mask="url(#mask-12)"></path>
            </g>
            <g id="Fill-15-Clipped" transform="translate(228.000000, 0.000000)">
                <mask id="mask-14" fill="white">
                    <use xlink:href="#path-13"></use>
                </mask>
                <g id="path-1"></g>
                <path d="M25.406,182.901 L25.406,415.302 C25.406,418.961 29.19,421.394 32.519,419.875 L359.702,270.641 C361.493,269.824 362.642,268.037 362.642,266.068 L362.642,33.666 C362.642,30.008 358.859,27.575 355.53,29.094 L28.347,178.328 C26.556,179.145 25.406,180.932 25.406,182.901" id="Fill-15" fill="#303945" fill-rule="nonzero" mask="url(#mask-14)"></path>
            </g>
            <g id="Fill-16-Clipped" transform="translate(228.000000, 0.000000)">
                <mask id="mask-16" fill="white">
                    <use xlink:href="#path-15"></use>
                </mask>
                <g id="path-1"></g>
                <path d="M200.305,387.234 C198.184,387.234 196.275,385.526 196.275,383.199 L196.275,375.956 C196.275,374.377 197.197,372.944 198.633,372.289 L204.151,369.772 C204.704,369.52 205.271,369.404 205.824,369.404 C207.946,369.404 209.855,371.113 209.855,373.44 L209.855,380.682 C209.855,382.261 208.933,383.694 207.497,384.349 L201.979,386.866 C201.426,387.118 200.859,387.234 200.305,387.234" id="Fill-16" fill="#5E646B" fill-rule="nonzero" mask="url(#mask-16)"></path>
            </g>
            <g id="Fill-17-Clipped" transform="translate(228.000000, 0.000000)">
                <mask id="mask-18" fill="white">
                    <use xlink:href="#path-17"></use>
                </mask>
                <g id="path-1"></g>
                <path d="M183.874,365.35 L186.41,349.683 L359.702,270.641 C361.493,269.824 362.642,268.037 362.642,266.068 L362.642,33.666 C362.642,30.765 360.263,28.634 357.617,28.634 C356.927,28.634 356.219,28.779 355.53,29.094 L228.954,86.827 L232.298,66.163 L360.04,7.325 C361.69,6.572 363.386,6.225 365.039,6.225 C371.375,6.225 377.076,11.329 377.076,18.279 L377.076,276.432 L183.874,365.35" id="Fill-17" fill="#30353C" fill-rule="nonzero" mask="url(#mask-18)"></path>
            </g>
            <g id="Fill-18-Clipped" transform="translate(228.000000, 0.000000)">
                <mask id="mask-20" fill="white">
                    <use xlink:href="#path-19"></use>
                </mask>
                <g id="path-1"></g>
                <path d="M186.41,349.683 L228.954,86.827 L355.53,29.094 C356.219,28.779 356.927,28.634 357.617,28.634 C360.263,28.634 362.642,30.765 362.642,33.666 L362.642,266.068 C362.642,268.037 361.493,269.824 359.702,270.641 L186.41,349.683" id="Fill-18" fill="#404954" fill-rule="nonzero" mask="url(#mask-20)"></path>
            </g>
            <g id="Fill-19-Clipped" transform="translate(228.000000, 0.000000)">
                <mask id="mask-22" fill="white">
                    <use xlink:href="#path-21"></use>
                </mask>
                <g id="path-1"></g>
                <path d="M9.764,197.148 C9.764,197.148 9.86,211.336 10.003,232.618 C10.041,243.259 10.084,255.674 10.131,268.975 C10.148,282.276 10.166,296.464 10.184,310.652 C10.165,324.84 10.146,339.029 10.129,352.33 C10.081,365.631 10.037,378.046 9.999,388.687 C9.858,409.969 9.764,424.157 9.764,424.157 C9.763,424.356 9.6,424.517 9.401,424.516 C9.203,424.514 9.043,424.354 9.042,424.157 C9.042,424.157 8.948,409.969 8.807,388.687 C8.769,378.046 8.725,365.631 8.678,352.33 C8.66,339.029 8.641,324.84 8.622,310.652 C8.64,296.464 8.658,282.276 8.675,268.975 C8.722,255.674 8.766,243.259 8.803,232.618 C8.946,211.336 9.042,197.148 9.042,197.148 C9.043,196.949 9.206,196.788 9.406,196.789 C9.603,196.791 9.763,196.951 9.764,197.148" id="Fill-19" fill="#FFFFFE" fill-rule="nonzero" mask="url(#mask-22)"></path>
            </g>
            <g id="Fill-20-Clipped" transform="translate(228.000000, 0.000000)">
                <mask id="mask-24" fill="white">
                    <use xlink:href="#path-23"></use>
                </mask>
                <g id="path-1"></g>
                <path d="M323.313,24.328 C323.313,24.328 305.24,32.758 278.131,45.402 C264.562,51.693 248.732,59.033 231.771,66.897 C214.797,74.734 196.692,83.093 178.587,91.452 C160.466,99.778 142.345,108.103 125.357,115.909 C108.357,123.687 92.49,130.947 78.889,137.17 C51.661,149.556 33.509,157.813 33.509,157.813 C33.328,157.896 33.114,157.816 33.031,157.634 C32.949,157.454 33.028,157.241 33.207,157.157 C33.207,157.157 51.28,148.729 78.391,136.087 C91.959,129.795 107.79,122.455 124.75,114.591 C141.724,106.754 159.828,98.394 177.933,90.034 C196.054,81.707 214.174,73.381 231.162,65.575 C248.162,57.796 264.029,50.536 277.629,44.312 C304.858,31.928 323.011,23.672 323.011,23.672 C323.192,23.59 323.406,23.67 323.489,23.852 C323.571,24.032 323.492,24.245 323.313,24.328" id="Fill-20" fill="#FFFFFE" fill-rule="nonzero" mask="url(#mask-24)"></path>
            </g>
            <g id="window-Clipped" transform="translate(228.000000, 0.000000)">
                <mask id="mask-26" fill="white">
                    <use xlink:href="#path-25"></use>
                </mask>
                <g id="path-1"></g>
                <g id="window" mask="url(#mask-26)">
                    <g transform="translate(27.000000, 29.000000)">
                        <g id="path-4-link" stroke="none" fill-rule="evenodd" transform="translate(1.000000, 0.000000)">
                            <path d="M0.089195,157.426552 C0.089195,154.114492 2.770379,150.200875 6.083239,148.682746 L327.184564,1.5369668 C330.494983,0.019956 333.178608,1.4760822 333.178608,4.7871902 L333.178608,223.075614 C333.178608,226.387674 330.497423,230.301291 327.184564,231.81942 L6.083239,378.965199 C2.77282,380.48221 0.089195,379.026084 0.089195,375.714976 L0.089195,157.426552 Z" id="path-4" fill="#000000" fill-rule="nonzero"></path>
                        </g>
                        <g id="path-4-link" stroke="none" fill-rule="evenodd" transform="translate(1.000000, 0.000000)">
                            <path d="M0.089195,157.426552 C0.089195,154.114492 2.770379,150.200875 6.083239,148.682746 L327.184564,1.5369668 C330.494983,0.019956 333.178608,1.4760822 333.178608,4.7871902 L333.178608,223.075614 C333.178608,226.387674 330.497423,230.301291 327.184564,231.81942 L6.083239,378.965199 C2.77282,380.48221 0.089195,379.026084 0.089195,375.714976 L0.089195,157.426552 Z" id="path-4" fill="#FFFFFF"></path>
                        </g>
                        <path d="M0.589195,157.426552 C0.589195,153.911938 3.390291,149.825053 6.874941,148.2282 L327.976267,1.0824206 C331.600869,-0.5785659 334.678608,1.0906513 334.678608,4.7871902 L334.678608,223.075614 C334.678608,226.590229 331.877512,230.677113 328.392861,232.273966 L7.291536,379.419745 C3.666933,381.080732 0.589195,379.411515 0.589195,375.714976 L0.589195,157.426552 Z" id="Shape" stroke="url(#linearGradient-27)"></path>
                    </g>
                </g>
            </g>
            <g id="background-Clipped" transform="translate(228.000000, 0.000000)">
                <mask id="mask-29" fill="white">
                    <use xlink:href="#path-28"></use>
                </mask>
                <g id="path-1"></g>
                <g id="background" mask="url(#mask-29)">
                    <g transform="translate(28.000000, 37.000000)" id="path-7-link">
                        <g>
                            <polygon id="path-7" fill="#B3B3B3" fill-rule="nonzero" points="0.089195 154.678898 333.178608 0.0639906 333.178608 9.7372611 0.089195 164.352168"></polygon>
                        </g>
                        <g>
                            <polygon id="path-7" fill="url(#linearGradient-30)" points="0.089195 154.678898 333.178608 0.0639906 333.178608 9.7372611 0.089195 164.352168"></polygon>
                        </g>
                        <g>
                            <polygon id="path-7" fill="#BCBCBC" fill-rule="nonzero" points="0.089195 154.678898 333.178608 0.0639906 333.178608 9.7372611 0.089195 164.352168"></polygon>
                        </g>
                    </g>
                </g>
            </g>
            <g id="backward-Clipped" transform="translate(228.000000, 0.000000)">
                <mask id="mask-32" fill="white">
                    <use xlink:href="#path-31"></use>
                </mask>
                <g id="path-1"></g>
                <g id="backward" mask="url(#mask-32)">
                    <g transform="translate(30.000000, 191.000000)" id="path-11-link">
                        <g>
                            <path d="M2.381186,3.312702 C2.526689,3.368584 2.536518,3.611306 2.40314,3.854836 C2.269763,4.098366 2.043686,4.250485 1.898183,4.194602 L0.468599,3.645549 C0.314072,3.586201 0.314072,3.318031 0.468599,3.065525 L1.898183,0.729491 C2.043686,0.49173 2.269763,0.361252 2.40314,0.43806 C2.536518,0.514868 2.526689,0.769877 2.381186,1.007638 L1.628895,2.236931 L3.688401,0.949739 C3.885785,0.826374 4.045797,0.902507 4.045797,1.119788 C4.045797,1.337068 3.885785,1.613216 3.688401,1.736581 L1.628895,3.023773 L2.381186,3.312702 Z" id="path-11" fill="#000000" fill-rule="nonzero"></path>
                        </g>
                        <g>
                            <path d="M2.381186,3.312702 C2.526689,3.368584 2.536518,3.611306 2.40314,3.854836 C2.269763,4.098366 2.043686,4.250485 1.898183,4.194602 L0.468599,3.645549 C0.314072,3.586201 0.314072,3.318031 0.468599,3.065525 L1.898183,0.729491 C2.043686,0.49173 2.269763,0.361252 2.40314,0.43806 C2.536518,0.514868 2.526689,0.769877 2.381186,1.007638 L1.628895,2.236931 L3.688401,0.949739 C3.885785,0.826374 4.045797,0.902507 4.045797,1.119788 C4.045797,1.337068 3.885785,1.613216 3.688401,1.736581 L1.628895,3.023773 L2.381186,3.312702 Z" id="path-11" fill="url(#linearGradient-33)"></path>
                        </g>
                        <g>
                            <path d="M2.381186,3.312702 C2.526689,3.368584 2.536518,3.611306 2.40314,3.854836 C2.269763,4.098366 2.043686,4.250485 1.898183,4.194602 L0.468599,3.645549 C0.314072,3.586201 0.314072,3.318031 0.468599,3.065525 L1.898183,0.729491 C2.043686,0.49173 2.269763,0.361252 2.40314,0.43806 C2.536518,0.514868 2.526689,0.769877 2.381186,1.007638 L1.628895,2.236931 L3.688401,0.949739 C3.885785,0.826374 4.045797,0.902507 4.045797,1.119788 C4.045797,1.337068 3.885785,1.613216 3.688401,1.736581 L1.628895,3.023773 L2.381186,3.312702 Z" id="path-11" fill="#000000" fill-rule="nonzero"></path>
                        </g>
                    </g>
                </g>
            </g>
            <g id="forward-Clipped" transform="translate(228.000000, 0.000000)">
                <mask id="mask-35" fill="white">
                    <use xlink:href="#path-34"></use>
                </mask>
                <g id="path-1"></g>
                <g id="forward" mask="url(#mask-35)">
                    <g transform="translate(36.000000, 188.000000)" id="path-15-link">
                        <g>
                            <path d="M1.926973,1.291521 C1.781471,1.235638 1.771641,0.992916 1.905019,0.749386 C2.038396,0.505856 2.264473,0.353738 2.409976,0.40962 L3.839561,0.958674 C3.994087,1.018022 3.994087,1.286191 3.839561,1.538697 L2.409976,3.874732 C2.264473,4.112493 2.038396,4.242971 1.905019,4.166162 C1.771641,4.089354 1.781471,3.834345 1.926973,3.596584 L2.679265,2.367292 L0.619758,3.654483 C0.422374,3.777848 0.262362,3.701715 0.262362,3.484435 C0.262362,3.267154 0.422374,2.991006 0.619758,2.867641 L2.679265,1.580449 L1.926973,1.291521 Z" id="path-15" fill="#000000" fill-rule="nonzero"></path>
                        </g>
                        <g>
                            <path d="M1.926973,1.291521 C1.781471,1.235638 1.771641,0.992916 1.905019,0.749386 C2.038396,0.505856 2.264473,0.353738 2.409976,0.40962 L3.839561,0.958674 C3.994087,1.018022 3.994087,1.286191 3.839561,1.538697 L2.409976,3.874732 C2.264473,4.112493 2.038396,4.242971 1.905019,4.166162 C1.771641,4.089354 1.781471,3.834345 1.926973,3.596584 L2.679265,2.367292 L0.619758,3.654483 C0.422374,3.777848 0.262362,3.701715 0.262362,3.484435 C0.262362,3.267154 0.422374,2.991006 0.619758,2.867641 L2.679265,1.580449 L1.926973,1.291521 Z" id="path-15" fill="url(#linearGradient-36)"></path>
                        </g>
                        <g>
                            <path d="M1.926973,1.291521 C1.781471,1.235638 1.771641,0.992916 1.905019,0.749386 C2.038396,0.505856 2.264473,0.353738 2.409976,0.40962 L3.839561,0.958674 C3.994087,1.018022 3.994087,1.286191 3.839561,1.538697 L2.409976,3.874732 C2.264473,4.112493 2.038396,4.242971 1.905019,4.166162 C1.771641,4.089354 1.781471,3.834345 1.926973,3.596584 L2.679265,2.367292 L0.619758,3.654483 C0.422374,3.777848 0.262362,3.701715 0.262362,3.484435 C0.262362,3.267154 0.422374,2.991006 0.619758,2.867641 L2.679265,1.580449 L1.926973,1.291521 Z" id="path-15" fill="#000000" fill-rule="nonzero"></path>
                        </g>
                    </g>
                </g>
            </g>
            <g id="refresh-Clipped" transform="translate(228.000000, 0.000000)">
                <mask id="mask-38" fill="white">
                    <use xlink:href="#path-37"></use>
                </mask>
                <g id="path-1"></g>
                <g id="refresh" mask="url(#mask-38)">
                    <g transform="translate(42.000000, 184.000000)" id="path-18-link">
                        <g>
                            <path d="M2.769522,2.608947 L4.443796,1.905945 L4.309661,0.298739 L3.82332,1.028252 C3.512714,0.915085 3.127225,0.957356 2.720737,1.1606 C1.733815,1.654061 0.933756,2.934794 0.933756,4.021196 C0.933756,5.107598 1.733815,5.588272 2.720737,5.094811 C3.200811,4.854774 3.651594,4.419498 3.984323,3.886866 C4.123895,3.66344 4.123895,3.414339 3.984323,3.330485 C3.844751,3.24663 3.618461,3.359775 3.478889,3.583202 C3.27888,3.903375 3.009287,4.163694 2.720737,4.307969 C2.128584,4.604045 1.648549,4.315641 1.648549,3.6638 C1.648549,3.011958 2.128584,2.243519 2.720737,1.947442 C2.92273,1.846446 3.115433,1.811605 3.28148,1.841012 L2.769522,2.608947 Z" id="path-18" fill="#000000" fill-rule="nonzero"></path>
                        </g>
                        <g>
                            <path d="M2.769522,2.608947 L4.443796,1.905945 L4.309661,0.298739 L3.82332,1.028252 C3.512714,0.915085 3.127225,0.957356 2.720737,1.1606 C1.733815,1.654061 0.933756,2.934794 0.933756,4.021196 C0.933756,5.107598 1.733815,5.588272 2.720737,5.094811 C3.200811,4.854774 3.651594,4.419498 3.984323,3.886866 C4.123895,3.66344 4.123895,3.414339 3.984323,3.330485 C3.844751,3.24663 3.618461,3.359775 3.478889,3.583202 C3.27888,3.903375 3.009287,4.163694 2.720737,4.307969 C2.128584,4.604045 1.648549,4.315641 1.648549,3.6638 C1.648549,3.011958 2.128584,2.243519 2.720737,1.947442 C2.92273,1.846446 3.115433,1.811605 3.28148,1.841012 L2.769522,2.608947 Z" id="path-18" fill="url(#linearGradient-33)"></path>
                        </g>
                        <g>
                            <path d="M2.769522,2.608947 L4.443796,1.905945 L4.309661,0.298739 L3.82332,1.028252 C3.512714,0.915085 3.127225,0.957356 2.720737,1.1606 C1.733815,1.654061 0.933756,2.934794 0.933756,4.021196 C0.933756,5.107598 1.733815,5.588272 2.720737,5.094811 C3.200811,4.854774 3.651594,4.419498 3.984323,3.886866 C4.123895,3.66344 4.123895,3.414339 3.984323,3.330485 C3.844751,3.24663 3.618461,3.359775 3.478889,3.583202 C3.27888,3.903375 3.009287,4.163694 2.720737,4.307969 C2.128584,4.604045 1.648549,4.315641 1.648549,3.6638 C1.648549,3.011958 2.128584,2.243519 2.720737,1.947442 C2.92273,1.846446 3.115433,1.811605 3.28148,1.841012 L2.769522,2.608947 Z" id="path-18" fill="#000000" fill-rule="nonzero"></path>
                        </g>
                    </g>
                </g>
            </g>
            <g id="address-bar-Clipped" transform="translate(228.000000, 0.000000)">
                <mask id="mask-40" fill="white">
                    <use xlink:href="#path-39"></use>
                </mask>
                <g id="path-1"></g>
                <g id="address-bar" mask="url(#mask-40)">
                    <g transform="translate(49.000000, 41.000000)">
                        <g id="path-23-link" stroke="none" fill-rule="evenodd" transform="translate(1.000000, 1.000000)">
                            <path d="M0.009491,141.578911 C0.009491,139.943266 1.359652,137.996242 3.006742,137.238584 L299.845888,0.6932729 C301.501224,-0.0681778 302.843139,0.6445098 302.843139,2.2761428 L302.843139,3.3363651 C302.843139,4.9720107 301.492977,6.9190347 299.845888,7.6766919 L3.006742,144.222003 C1.351406,144.983454 0.009491,144.270767 0.009491,142.639134 L0.009491,141.578911 Z" id="path-23" fill="#FFFFFF"></path>
                        </g>
                        <g id="path-23-link" stroke="none" fill-rule="evenodd" transform="translate(1.000000, 1.000000)">
                            <path d="M0.009491,141.578911 C0.009491,139.943266 1.359652,137.996242 3.006742,137.238584 L299.845888,0.6932729 C301.501224,-0.0681778 302.843139,0.6445098 302.843139,2.2761428 L302.843139,3.3363651 C302.843139,4.9720107 301.492977,6.9190347 299.845888,7.6766919 L3.006742,144.222003 C1.351406,144.983454 0.009491,144.270767 0.009491,142.639134 L0.009491,141.578911 Z" id="path-23" fill="#FFFFFF" fill-rule="nonzero"></path>
                        </g>
                        <path d="M1.509491,142.578911 L1.509491,143.639134 C1.509491,144.883828 2.456421,145.384784 3.79779,144.767758 L300.636936,8.2224463 C302.115349,7.5423795 303.343139,5.7667159 303.343139,4.3363651 L303.343139,3.2761428 C303.343139,2.0314484 302.396208,1.530492 301.05484,2.1475185 L4.215693,138.69283 C2.73728,139.372897 1.509491,141.14856 1.509491,142.578911 Z" id="Shape" stroke="url(#linearGradient-41)"></path>
                        <path d="M0.509491,142.578911 C0.509491,140.743589 1.976328,138.622207 3.79779,137.784339 L300.636936,1.2390273 C302.603437,0.3344415 304.343139,1.2547995 304.343139,3.2761428 L304.343139,4.3363651 C304.343139,6.1716875 302.876301,8.2930696 301.05484,9.1309375 L4.215693,145.676249 C2.249193,146.580835 0.509491,145.660477 0.509491,143.639134 L0.509491,142.578911 Z" id="Shape" stroke="url(#linearGradient-42)"></path>
                    </g>
                </g>
            </g>
            <g id="tools-Clipped" transform="translate(228.000000, 0.000000)">
                <mask id="mask-44" fill="white">
                    <use xlink:href="#path-43"></use>
                </mask>
                <g id="path-1"></g>
                <g id="tools" mask="url(#mask-44)">
                    <g transform="translate(355.000000, 41.000000)" id="path-26-link">
                        <g>
                            <path d="M2.965816,4.2072532 L0.583176,4.2072532 C0.385791,4.2072532 0.225779,4.0311125 0.225779,3.8138321 C0.225779,3.5965517 0.385791,3.4204111 0.583176,3.4204111 L2.965816,3.4204111 C3.163201,3.4204111 3.323213,3.5965517 3.323213,3.8138321 C3.323213,4.0311125 3.163201,4.2072532 2.965816,4.2072532 Z M2.965816,1.5844462 L0.583176,1.5844462 C0.385791,1.5844462 0.225779,1.4083056 0.225779,1.1910251 C0.225779,0.9737447 0.385791,0.7976041 0.583176,0.7976041 L2.965816,0.7976041 C3.163201,0.7976041 3.323213,0.9737447 3.323213,1.1910251 C3.323213,1.4083056 3.163201,1.5844462 2.965816,1.5844462 Z M2.965816,2.8958497 L0.583176,2.8958497 C0.385791,2.8958497 0.225779,2.7197091 0.225779,2.5024286 C0.225779,2.2851482 0.385791,2.1090076 0.583176,2.1090076 L2.965816,2.1090076 C3.163201,2.1090076 3.323213,2.2851482 3.323213,2.5024286 C3.323213,2.7197091 3.163201,2.8958497 2.965816,2.8958497 Z" id="path-26" fill="#000000" fill-rule="nonzero"></path>
                        </g>
                        <g>
                            <path d="M2.965816,4.2072532 L0.583176,4.2072532 C0.385791,4.2072532 0.225779,4.0311125 0.225779,3.8138321 C0.225779,3.5965517 0.385791,3.4204111 0.583176,3.4204111 L2.965816,3.4204111 C3.163201,3.4204111 3.323213,3.5965517 3.323213,3.8138321 C3.323213,4.0311125 3.163201,4.2072532 2.965816,4.2072532 Z M2.965816,1.5844462 L0.583176,1.5844462 C0.385791,1.5844462 0.225779,1.4083056 0.225779,1.1910251 C0.225779,0.9737447 0.385791,0.7976041 0.583176,0.7976041 L2.965816,0.7976041 C3.163201,0.7976041 3.323213,0.9737447 3.323213,1.1910251 C3.323213,1.4083056 3.163201,1.5844462 2.965816,1.5844462 Z M2.965816,2.8958497 L0.583176,2.8958497 C0.385791,2.8958497 0.225779,2.7197091 0.225779,2.5024286 C0.225779,2.2851482 0.385791,2.1090076 0.583176,2.1090076 L2.965816,2.1090076 C3.163201,2.1090076 3.323213,2.2851482 3.323213,2.5024286 C3.323213,2.7197091 3.163201,2.8958497 2.965816,2.8958497 Z" id="path-26" fill="url(#linearGradient-45)"></path>
                        </g>
                        <g>
                            <path d="M2.965816,4.2072532 L0.583176,4.2072532 C0.385791,4.2072532 0.225779,4.0311125 0.225779,3.8138321 C0.225779,3.5965517 0.385791,3.4204111 0.583176,3.4204111 L2.965816,3.4204111 C3.163201,3.4204111 3.323213,3.5965517 3.323213,3.8138321 C3.323213,4.0311125 3.163201,4.2072532 2.965816,4.2072532 Z M2.965816,1.5844462 L0.583176,1.5844462 C0.385791,1.5844462 0.225779,1.4083056 0.225779,1.1910251 C0.225779,0.9737447 0.385791,0.7976041 0.583176,0.7976041 L2.965816,0.7976041 C3.163201,0.7976041 3.323213,0.9737447 3.323213,1.1910251 C3.323213,1.4083056 3.163201,1.5844462 2.965816,1.5844462 Z M2.965816,2.8958497 L0.583176,2.8958497 C0.385791,2.8958497 0.225779,2.7197091 0.225779,2.5024286 C0.225779,2.2851482 0.385791,2.1090076 0.583176,2.1090076 L2.965816,2.1090076 C3.163201,2.1090076 3.323213,2.2851482 3.323213,2.5024286 C3.323213,2.7197091 3.163201,2.8958497 2.965816,2.8958497 Z" id="path-26" fill="#000000" fill-rule="nonzero"></path>
                        </g>
                    </g>
                </g>
            </g>
            <g id="background-Clipped" transform="translate(228.000000, 0.000000)">
                <mask id="mask-47" fill="white">
                    <use xlink:href="#path-46"></use>
                </mask>
                <g id="path-1"></g>
                <g id="background" mask="url(#mask-47)">
                    <g transform="translate(27.000000, 28.000000)" id="path-30-link">
                        <g>
                            <polygon id="path-30" fill="url(#linearGradient-48)" points="0.368742 153.300051 334.178608 0.0420936 334.178608 9.4841332 0.368742 162.742091"></polygon>
                        </g>
                        <g>
                            <polygon id="path-30" fill="#CBCBCB" fill-rule="nonzero" points="0.368742 153.300051 334.178608 0.0420936 334.178608 9.4841332 0.368742 162.742091"></polygon>
                        </g>
                    </g>
                </g>
            </g>
            <g id="Close-Clipped" transform="translate(228.000000, 0.000000)">
                <mask id="mask-50" fill="white">
                    <use xlink:href="#path-49"></use>
                </mask>
                <g id="path-1"></g>
                <ellipse id="Close" stroke="#D4534C" fill="#EE5C55" fill-rule="nonzero" mask="url(#mask-50)" cx="32.411913" cy="183.453745" rx="1.44090589" ry="1.57368419"></ellipse>
            </g>
            <g id="Minimize-Clipped" transform="translate(228.000000, 0.000000)">
                <mask id="mask-52" fill="white">
                    <use xlink:href="#path-51"></use>
                </mask>
                <g id="path-1"></g>
                <ellipse id="Minimize" stroke="#DEA92C" fill="#F8BC32" fill-rule="nonzero" mask="url(#mask-52)" cx="38.214932" cy="180.453745" rx="1.44090589" ry="1.57368419"></ellipse>
            </g>
            <g id="Full-screen-Clipped" transform="translate(228.000000, 0.000000)">
                <mask id="mask-54" fill="white">
                    <use xlink:href="#path-53"></use>
                </mask>
                <g id="path-1"></g>
                <ellipse id="Full-screen" stroke="#57B33B" fill="#62CB43" fill-rule="nonzero" mask="url(#mask-54)" cx="44.017952" cy="177.453745" rx="1.44090589" ry="1.57368419"></ellipse>
            </g>
            <g id="active-tab-Clipped" transform="translate(228.000000, 0.000000)">
                <mask id="mask-56" fill="white">
                    <use xlink:href="#path-55"></use>
                </mask>
                <g id="path-1"></g>
                <g id="active-tab" mask="url(#mask-56)">
                    <g transform="translate(48.000000, 152.000000)" id="path-33-link">
                        <g>
                            <path d="M3.981392,19.855674 C3.452876,20.091509 2.883677,20.790257 2.713384,21.414884 L1.313582,26.549293 C1.313582,26.549293 1.2163,26.856953 1.098027,27.178076 C0.979754,27.4992 0.620217,27.650236 0.620217,27.650236 L25.347549,16.616395 L50.074881,5.582555 C50.074881,5.582555 49.715343,5.752385 49.597071,5.536813 C49.478798,5.32124 49.381515,5.1004 49.381515,5.1004 L47.981714,1.215231 C47.811421,0.74258 47.242222,0.551809 46.713705,0.787643 L25.347549,10.321659 L3.981392,19.855674 Z" id="path-33" fill="#000000" fill-rule="nonzero"></path>
                        </g>
                        <g>
                            <path d="M3.981392,19.855674 C3.452876,20.091509 2.883677,20.790257 2.713384,21.414884 L1.313582,26.549293 C1.313582,26.549293 1.2163,26.856953 1.098027,27.178076 C0.979754,27.4992 0.620217,27.650236 0.620217,27.650236 L25.347549,16.616395 L50.074881,5.582555 C50.074881,5.582555 49.715343,5.752385 49.597071,5.536813 C49.478798,5.32124 49.381515,5.1004 49.381515,5.1004 L47.981714,1.215231 C47.811421,0.74258 47.242222,0.551809 46.713705,0.787643 L25.347549,10.321659 L3.981392,19.855674 Z" id="path-33" fill="url(#linearGradient-57)"></path>
                        </g>
                        <g>
                            <path d="M3.981392,19.855674 C3.452876,20.091509 2.883677,20.790257 2.713384,21.414884 L1.313582,26.549293 C1.313582,26.549293 1.2163,26.856953 1.098027,27.178076 C0.979754,27.4992 0.620217,27.650236 0.620217,27.650236 L25.347549,16.616395 L50.074881,5.582555 C50.074881,5.582555 49.715343,5.752385 49.597071,5.536813 C49.478798,5.32124 49.381515,5.1004 49.381515,5.1004 L47.981714,1.215231 C47.811421,0.74258 47.242222,0.551809 46.713705,0.787643 L25.347549,10.321659 L3.981392,19.855674 Z" id="path-33" fill="#FDFDFD" fill-rule="nonzero"></path>
                        </g>
                    </g>
                </g>
            </g>
            <g id="title-end-fade-out-3"></g>
            <g id="Group" transform="translate(281.000000, 155.000000)" fill-rule="nonzero">
                <path d="M2.78252667,27.825621 L2.78252667,24.8721302 L3.1510116,24.7001009 L3.1510116,26.0038268 C3.34554269,25.6286942 3.583715,25.375347 3.86553568,25.2437774 C4.04136186,25.161692 4.18164659,25.1520015 4.2863941,25.2147055 C4.39114161,25.2774095 4.44351458,25.4029077 4.44351458,25.5912038 L4.44351458,27.0501797 L4.07502965,27.2222089 L4.07502965,25.8829439 C4.07502965,25.7320576 4.05289584,25.6348392 4.00862754,25.5912859 C3.96435925,25.5477326 3.89109944,25.5498248 3.78884592,25.5975624 C3.56313998,25.7029345 3.35053067,25.9499589 3.1510116,26.3386431 L3.1510116,27.6535918 L2.78252667,27.825621 Z M5.60551134,26.5544571 C5.41846222,26.6417821 5.27256609,26.6562745 5.16781858,26.597935 C5.06307107,26.5395954 5.01069811,26.4150325 5.01069811,26.2242424 L5.01069811,25.0308749 L4.75631257,25.1496362 L4.75631257,24.8728049 L5.01069811,24.7540436 L5.01069811,24.3855587 L5.37918304,24.1779903 L5.37918304,24.5820144 L5.91039989,24.3340129 L5.91039989,24.6108442 L5.37918304,24.8588457 L5.37918304,25.9848758 C5.37918304,26.2504856 5.49390478,26.32973 5.7233517,26.2226114 C5.77198447,26.1999069 5.83121581,26.1641491 5.90104748,26.1153369 L5.90104748,26.3697224 C5.78757101,26.4538744 5.68905995,26.515452 5.60551134,26.5544571 Z M6.87412557,25.9621976 C6.68707645,26.0495225 6.54118032,26.064015 6.43643281,26.0056754 C6.33168531,25.9473359 6.27931234,25.8227729 6.27931234,25.6319828 L6.27931234,24.4386154 L6.0249268,24.5573767 L6.0249268,24.2805454 L6.27931234,24.1617841 L6.27931234,23.7932991 L6.64779727,23.5857308 L6.64779727,23.9897549 L7.17901412,23.7417533 L7.17901412,24.0185847 L6.64779727,24.2665862 L6.64779727,25.3926163 C6.64779727,25.658226 6.76251901,25.7374704 6.99196593,25.6303519 C7.0405987,25.6076474 7.09983004,25.5718896 7.16966171,25.5230774 L7.16966171,25.7774629 C7.05618524,25.8616149 6.95767418,25.9231925 6.87412557,25.9621976 Z M7.53296271,26.3466942 L7.53296271,23.5765105 L7.90144764,23.4044813 L7.90144764,23.7860596 C8.05233393,23.4313028 8.27865998,23.1834861 8.58043256,23.0426019 C8.82484342,22.9284973 9.01718938,22.9278583 9.15747622,23.0406848 C9.29776307,23.1535112 9.36790544,23.3645486 9.36790544,23.6738031 C9.36790544,24.0104916 9.28841075,24.319133 9.129419,24.5997367 C8.97042724,24.8803404 8.76124711,25.0811845 8.50187232,25.2022751 C8.26120245,25.3146331 8.06106289,25.3157932 7.90144764,25.2057553 L7.90144764,26.1746649 L7.53296271,26.3466942 Z M7.90144764,24.9513698 C8.09099075,25.0324718 8.27180219,25.0328533 8.44388739,24.9525143 C8.79803373,24.7871792 8.97510424,24.4345426 8.97510424,23.8945942 C8.97510424,23.4182424 8.81798533,23.2534219 8.50374281,23.4001278 C8.29798877,23.4961852 8.09722572,23.7015168 7.90144764,24.0161289 L7.90144764,24.9513698 Z M10.3185377,24.3541548 C10.1501935,24.4327472 9.94568956,24.4889413 9.70501969,24.5227387 L9.70501969,24.1841815 C9.94568956,24.1915349 10.1551814,24.1535873 10.3335016,24.0703375 C10.4394961,24.0208534 10.5274079,23.9511309 10.5972395,23.8611679 C10.6670712,23.7712048 10.7019865,23.6832033 10.7019865,23.5971607 C10.7019865,23.4712143 10.604099,23.4127912 10.4083209,23.4218897 L10.1932155,23.4306592 C9.87523195,23.4469302 9.71624258,23.3309915 9.71624258,23.0828397 C9.71624258,22.9057665 9.7789031,22.7371636 9.90422601,22.5770259 C10.0295489,22.4168882 10.2013198,22.2858817 10.4195438,22.1840027 C10.5330202,22.1310256 10.673305,22.08112 10.8404022,22.0342846 L10.9170919,22.0134455 L10.9170919,22.3202045 C10.7113379,22.3551592 10.5479841,22.4008709 10.4270257,22.457341 C10.1900968,22.5679526 10.0716341,22.7092988 10.0716341,22.881384 C10.0716341,22.9923665 10.1614164,23.0439743 10.3409835,23.0362091 L10.5186793,23.0280701 C10.7194454,23.0191369 10.8616006,23.0422415 10.9451492,23.0973844 C11.0286978,23.1525273 11.0704715,23.2505525 11.0704715,23.3914629 C11.0704715,23.569783 11.0000173,23.7491945 10.859107,23.9297028 C10.7181967,24.110211 10.5380087,24.2516936 10.3185377,24.3541548 Z M11.6208207,23.6994148 L11.6208207,23.3309299 L11.9893056,23.1589007 L11.9893056,23.5273856 L11.6208207,23.6994148 Z M11.6208207,22.0384269 L11.6208207,21.6680715 L11.9893056,21.4960423 L11.9893056,21.8663977 L11.6208207,22.0384269 Z M12.6088626,23.7918046 L13.6058294,20.0043894 L13.8957541,19.8690364 L12.8987873,23.6564517 L12.6088626,23.7918046 Z M13.9610607,23.1605235 L14.9580276,19.3731082 L15.2479522,19.2377553 L14.2509854,23.0251706 L13.9610607,23.1605235 Z M16.6965603,21.0716513 C16.4758423,21.3779548 16.263233,21.5788411 16.058726,21.6743163 C15.8903817,21.7529088 15.7507205,21.7654257 15.639738,21.7118675 C15.5287555,21.6583092 15.4732651,21.5511006 15.4732651,21.3902384 C15.4732651,21.1682734 15.5664765,20.9542332 15.7529022,20.7481115 C15.9393278,20.5419897 16.2064923,20.3577194 16.5544037,20.1952951 L16.6423163,20.1542526 L16.6423163,19.9092194 C16.6423163,19.6735375 16.5213597,19.6121676 16.2794428,19.7251078 C16.0849117,19.8159258 15.8747964,19.9738741 15.6490904,20.1989576 L15.6490904,19.894069 C15.8972423,19.6772115 16.1298032,19.5181366 16.3467802,19.4168397 C16.5737331,19.3108855 16.7411396,19.2838569 16.8490046,19.335753 C16.9568695,19.3876492 17.0108012,19.5214602 17.0108012,19.7371902 L17.0108012,20.6574673 C17.0108012,20.8682093 17.075644,20.9433066 17.2053314,20.8827613 C17.2215423,20.8751931 17.2452348,20.8616382 17.2764097,20.8420961 L17.3025964,21.0337532 C17.2190478,21.1126621 17.1267716,21.1756934 17.0257651,21.2228488 C16.8536799,21.3031877 16.7439461,21.2527891 16.6965603,21.0716513 Z M16.6423163,20.8968339 L16.6423163,20.3712285 L16.5188645,20.4251217 C16.3168515,20.5194326 16.1534977,20.6340397 16.0287983,20.7689464 C15.9040988,20.9038532 15.8417501,21.0336543 15.8417501,21.1583537 C15.8417501,21.2468903 15.8729244,21.3071549 15.9352742,21.3391493 C15.9976239,21.3711437 16.0736894,21.366183 16.1634729,21.3242671 C16.3168532,21.2526606 16.4764661,21.1101843 16.6423163,20.8968339 Z M17.6004305,20.907801 L17.6004305,17.9543101 L17.9689155,17.7822809 L17.9689155,20.7357718 L17.6004305,20.907801 Z M20.0324845,19.7069164 C19.7855797,19.8970049 19.5742173,20.0330898 19.3983911,20.1151753 C19.0991126,20.2548951 18.8550171,20.2694061 18.6660975,20.1587087 C18.4771779,20.0480113 18.3827195,19.8342976 18.3827195,19.5175611 C18.3827195,19.2095535 18.4659551,18.918182 18.6324288,18.6434377 C18.7989025,18.3686935 19.0118236,18.170779 19.2711984,18.0496885 C19.5168562,17.9350018 19.7067082,17.9336566 19.8407601,18.0456529 C19.974812,18.1576493 20.0418369,18.3745064 20.0418369,18.6962309 L20.0399664,18.8112035 L18.7586863,19.4093762 C18.8123071,19.8669298 19.0486089,19.9979007 19.467599,19.8022929 C19.6209793,19.7306865 19.8092726,19.6016305 20.0324845,19.4151212 L20.0324845,19.7069164 Z M18.7755207,19.1246857 L19.6714815,18.7064014 C19.6714815,18.3285622 19.5305733,18.2054292 19.2487526,18.3369987 C18.9656849,18.4691505 18.8079425,18.7317101 18.7755207,19.1246857 Z M20.3097433,19.6429434 L21.0822524,18.232953 L20.3321891,17.6011212 L20.7698819,17.3967819 L21.3628246,17.9018247 L21.8996529,16.8693421 L22.2587855,16.7016791 L21.5554843,18.0606546 L22.3205114,18.7042053 L21.8828186,18.9085446 L21.271171,18.3897884 L20.6800988,19.470041 L20.3097433,19.6429434 Z M22.6987762,19.2664506 L22.6987762,16.496267 L23.0672611,16.3242377 L23.0672611,16.705816 C23.2181474,16.3510593 23.4444735,16.1032425 23.7462461,15.9623583 C23.9906569,15.8482538 24.1830029,15.8476147 24.3232897,15.9604412 C24.4635766,16.0732677 24.5337189,16.284305 24.5337189,16.5935596 C24.5337189,16.930248 24.4542243,17.2388895 24.2952325,17.5194932 C24.1362407,17.8000969 23.9270606,18.000941 23.6676858,18.1220315 C23.427016,18.2343896 23.2268764,18.2355497 23.0672611,18.1255118 L23.0672611,19.0944214 L22.6987762,19.2664506 Z M23.0672611,17.8711263 C23.2568043,17.9522282 23.4376157,17.9526097 23.6097009,17.8722708 C23.9638472,17.7069356 24.1409177,17.3542991 24.1409177,16.8143506 C24.1409177,16.3379989 23.9837988,16.1731784 23.6695563,16.3198842 C23.4638023,16.4159416 23.2630392,16.6212733 23.0672611,16.9358853 L23.0672611,17.8711263 Z M24.9456525,17.4786437 L24.9456525,14.5251528 L25.3141374,14.3531236 L25.3141374,17.3066145 L24.9456525,17.4786437 Z M27.15886,16.4453956 L27.15886,16.0638173 C26.963082,16.440779 26.7255331,16.6944587 26.4462065,16.8248639 C26.2691333,16.9075315 26.1282251,16.9175131 26.0234775,16.8548091 C25.91873,16.792105 25.8663571,16.6659834 25.8663571,16.4764403 L25.8663571,15.0174644 L26.234842,14.8454352 L26.234842,16.1847002 C26.234842,16.3368335 26.2569758,16.4346753 26.3012441,16.4782286 C26.3455124,16.5217819 26.4193957,16.5193987 26.5228962,16.4710789 C26.7473552,16.366289 26.959341,16.1195557 27.15886,15.7308715 L27.15886,14.4140523 L27.527345,14.242023 L27.527345,16.2733664 L27.15886,16.4453956 Z M28.1020104,16.0050806 L28.1020104,13.9737373 L28.4704954,13.8017081 L28.4704954,14.1832864 C28.6500625,13.8151398 28.880753,13.5652855 29.1625737,13.433716 C29.4344184,13.3068038 29.6195942,13.3625086 29.7181068,13.6008321 C29.892686,13.2337672 30.1196355,12.9850359 30.3989622,12.8546307 C30.5785293,12.7707988 30.7175671,12.7585729 30.8160796,12.8179528 C30.9145922,12.8773327 30.9638477,13.0017923 30.9638477,13.1913355 L30.9638477,14.6690161 L30.5934923,14.8419186 L30.5934923,13.4222229 C30.5934923,13.1902819 30.5018396,13.1171018 30.3185315,13.2026802 C30.1277414,13.2917516 29.9276018,13.5204847 29.7181068,13.8888863 L29.7181068,15.2505972 L29.3477514,15.4234996 L29.3477514,14.0038039 C29.3477514,13.770616 29.2542282,13.6976856 29.0671791,13.7850105 C28.881377,13.8717532 28.6824844,14.1005276 28.4704954,14.4713406 L28.4704954,15.8330514 L28.1020104,16.0050806 Z M31.5141969,14.4120826 L31.5141969,12.3807393 L31.8826818,12.2087101 L31.8826818,12.5902884 C32.062249,12.2221418 32.2929394,11.9722875 32.5747601,11.8407179 C32.8466048,11.7138057 33.0317807,11.7695106 33.1302932,12.0078341 C33.3048724,11.6407692 33.531822,11.3920379 33.8111486,11.2616327 C33.9907158,11.1778007 34.1297536,11.1655749 34.2282661,11.2249548 C34.3267786,11.2843347 34.3760342,11.4087943 34.3760342,11.5983374 L34.3760342,13.0760181 L34.0056788,13.2489206 L34.0056788,11.8292248 C34.0056788,11.5972839 33.9140261,11.5241038 33.7307179,11.6096822 C33.5399278,11.6987536 33.3397883,11.9274867 33.1302932,12.2958883 L33.1302932,13.6575991 L32.7599378,13.8305016 L32.7599378,12.4108058 C32.7599378,12.1776179 32.6664147,12.1046875 32.4793655,12.1920124 C32.2935634,12.2787552 32.0946708,12.5075296 31.8826818,12.8783426 L31.8826818,14.2400534 L31.5141969,14.4120826 Z M36.4152869,12.0585149 C36.1683821,12.2486034 35.9570198,12.3846883 35.7811936,12.4667737 C35.481915,12.6064936 35.2378195,12.6210046 35.0488999,12.5103072 C34.8599803,12.3996098 34.7655219,12.185896 34.7655219,11.8691595 C34.7655219,11.561152 34.8487575,11.2697804 35.0152312,10.9950362 C35.181705,10.7202919 35.394626,10.5223775 35.6540008,10.401287 C35.8996587,10.2866003 36.0895107,10.2852551 36.2235625,10.3972514 C36.3576144,10.5092477 36.4246393,10.7261049 36.4246393,11.0478294 L36.4227689,11.162802 L35.1414888,11.7609747 C35.1951095,12.2185283 35.4314114,12.3494992 35.8504014,12.1538914 C36.0037817,12.082285 36.192075,11.953229 36.4152869,11.7667197 L36.4152869,12.0585149 Z M35.1583231,11.4762842 L36.0542839,11.0579999 C36.0542839,10.6801607 35.9133757,10.5570277 35.631555,10.6885972 C35.3484874,10.8207489 35.190745,11.0833086 35.1583231,11.4762842 Z M36.8964283,11.8993582 L36.8964283,9.86801491 L37.2649132,9.69598569 L37.2649132,10.077564 C37.4108115,9.72513589 37.6227974,9.48401394 37.9008771,9.3541909 C37.9382869,9.33672592 37.9775666,9.3215054 38.0187174,9.30852889 L38.0187174,9.65269756 C37.9551207,9.66118913 37.8990068,9.67678692 37.8503741,9.6994914 C37.6171861,9.80835645 37.4220345,10.0378784 37.2649132,10.388064 L37.2649132,11.727329 L36.8964283,11.8993582 Z M38.3053287,11.2416053 L38.3053287,10.7795963 L38.7673377,10.5639049 L38.7673377,11.0259139 L38.3053287,11.2416053 Z M40.1406989,10.4315147 C39.8663602,10.5595912 39.6387872,10.5642064 39.457973,10.4453605 C39.2771589,10.3265145 39.1867531,10.1124675 39.1867531,9.80321291 C39.1867531,9.47275946 39.2762236,9.17348924 39.4551673,8.90539327 C39.634111,8.6372973 39.8838178,8.42844411 40.2042953,8.27882742 C40.3626635,8.20489233 40.5397341,8.14404805 40.7355121,8.09629277 L40.7355121,8.40492228 C40.5272641,8.44104131 40.3576755,8.48966381 40.2267411,8.55079125 C40.038445,8.63869833 39.8872492,8.78005076 39.7731492,8.9748528 C39.6590493,9.16965483 39.6020001,9.38489357 39.6020001,9.62057546 C39.6020001,9.84877539 39.660608,10.0059664 39.7778254,10.0921531 C39.8950429,10.1783398 40.0484209,10.1771886 40.237964,10.0886993 C40.4063082,10.0101069 40.5796378,9.88616638 40.7579579,9.71687404 L40.7579579,10.034856 C40.519782,10.2183753 40.3140311,10.3505936 40.1406989,10.4315147 Z M41.94053,9.59125363 C41.6499804,9.72689832 41.4180429,9.73885074 41.2447107,9.62711123 C41.0713785,9.51537172 40.9847137,9.29801948 40.9847137,8.97504799 C40.9847137,8.64833552 41.0716903,8.34929439 41.245646,8.07791561 C41.4196017,7.80653683 41.6555918,7.60128167 41.9536234,7.46214398 C42.251655,7.32300628 42.4876451,7.30791488 42.6616008,7.41686932 C42.8355564,7.52582376 42.922533,7.74240697 42.922533,8.06662545 C42.922533,8.3983259 42.8352447,8.69969478 42.6606655,8.97074115 C42.4860863,9.24178751 42.2460436,9.44862293 41.94053,9.59125363 Z M41.9461414,9.31180257 C42.3364506,9.12958459 42.5316023,8.77536514 42.5316023,8.24913361 C42.5316023,7.72913705 42.3389446,7.55908598 41.9536234,7.7389753 C41.5695492,7.91828245 41.3775149,8.26917604 41.3775149,8.79166659 C41.3775149,9.31540414 41.5670552,9.48878106 41.9461414,9.31180257 Z M43.3344665,8.89372464 L43.3344665,6.86238132 L43.7029514,6.6903521 L43.7029514,7.0719304 C43.8825186,6.70378382 44.1132091,6.45392951 44.3950297,6.32235997 C44.6668745,6.19544777 44.8520503,6.2511526 44.9505628,6.48947615 C45.125142,6.12241123 45.3520916,5.8736799 45.6314183,5.7432747 C45.8109854,5.65944278 45.9500232,5.64721695 46.0485357,5.70659684 C46.1470483,5.76597672 46.1963038,5.89043635 46.1963038,6.07997947 L46.1963038,7.55766015 L45.8259484,7.73056261 L45.8259484,6.31086687 C45.8259484,6.07892595 45.7342957,6.0057458 45.5509875,6.09132422 C45.3601974,6.18039563 45.1600579,6.40912872 44.9505628,6.77753036 L44.9505628,8.13924116 L44.5802074,8.31214363 L44.5802074,6.89244788 C44.5802074,6.65925997 44.4866843,6.58632957 44.2996352,6.67365448 C44.113833,6.76039723 43.9149404,6.98917165 43.7029514,7.35998461 L43.7029514,8.72169542 L43.3344665,8.89372464 Z" id="https://alexplummer." fill="#181818"></path>
                <path d="M2.37326523,19.3115606 L1.96519913,18.4689488 L1.55551373,19.6933324 L2.37326523,19.3115606 Z M2.73275203,20.0602616 L2.47204313,19.518058 L1.45673583,19.9920598 L1.19278831,20.7792022 L0.877022879,20.926619 L1.82755779,18.0862779 L2.16437425,17.9290333 L3.10033538,19.8886533 L2.73275203,20.0602616 Z M3.45658356,19.7223369 L3.45658356,17.1654466 L3.77558761,17.0165178 L3.77558761,19.5734081 L3.45658356,19.7223369 Z M5.7041857,18.6163556 C5.49043573,18.7809187 5.30745554,18.8987299 5.15523965,18.9697927 C4.89614877,19.0907507 4.68483094,19.1033132 4.52127982,19.0074804 C4.3577287,18.9116477 4.27595437,18.7266318 4.27595437,18.4524273 C4.27595437,18.1857796 4.34801294,17.933534 4.49213224,17.695683 C4.63625154,17.4578319 4.82058114,17.2864938 5.04512657,17.1816636 C5.257797,17.0823772 5.42215531,17.0812127 5.53820644,17.1781699 C5.65425756,17.2751271 5.71228225,17.4628643 5.71228225,17.741387 L5.71066294,17.8409209 L4.60143566,18.3587697 C4.64785611,18.7548821 4.85242688,18.868266 5.21515411,18.6989248 C5.34793819,18.6369339 5.51094709,18.5252078 5.7041857,18.3637433 L5.7041857,18.6163556 Z M4.61600945,18.112308 L5.39165889,17.7501918 C5.39165889,17.4230896 5.2696721,17.3164911 5.02569485,17.4303932 C4.78063806,17.5447993 4.64407763,17.772102 4.61600945,18.112308 Z M6.08634284,18.4946193 L6.75511783,17.2739652 L6.10577456,16.726977 L6.48469308,16.5500768 L6.99801432,16.9873014 L7.46275626,16.0934626 L7.77366376,15.9483137 L7.16480324,17.1248033 L7.82710099,17.6819368 L7.44818247,17.858837 L6.91866813,17.4097404 L6.4069662,18.3449345 L6.08634284,18.4946193 Z M9.33629782,16.9773599 L9.33629782,14.5807813 L9.98887971,14.2761198 C10.2781979,14.1410501 10.4860072,14.0928818 10.612314,14.1316136 C10.7386208,14.1703455 10.8017733,14.3014423 10.8017733,14.5249082 C10.8017733,14.7796809 10.7154109,15.0197126 10.5426837,15.2450103 C10.3699564,15.470308 10.130301,15.654521 9.8237101,15.7976546 L9.67311428,15.8679611 L9.67311428,16.8201153 L9.33629782,16.9773599 Z M9.67311428,15.6104908 L9.81075562,15.5462322 C10.0126306,15.4519858 10.1686226,15.3327403 10.2787362,15.1884922 C10.3888498,15.0442442 10.4439058,14.8873782 10.4439058,14.7178896 C10.4439058,14.5743101 10.4007246,14.4919142 10.314361,14.4706994 C10.2279974,14.4494847 10.0838802,14.486 9.88200525,14.5802464 L9.67311428,14.6777683 L9.67311428,15.6104908 Z M11.1790725,16.1170504 L11.1790725,13.5601601 L11.4980765,13.4112313 L11.4980765,15.9681216 L11.1790725,16.1170504 Z M13.2372154,15.1561951 L13.2372154,14.8258559 C13.0677268,15.1521984 12.8620765,15.3718135 12.6202583,15.4847076 C12.4669629,15.5562745 12.3449761,15.5649157 12.2542943,15.5106317 C12.1636125,15.4563477 12.1182722,15.3471619 12.1182722,15.183071 L12.1182722,13.9200093 L12.4372763,13.7710805 L12.4372763,14.9305064 C12.4372763,15.0622109 12.4564379,15.1469144 12.4947618,15.1846192 C12.5330856,15.2223241 12.5970477,15.2202609 12.68665,15.1784296 C12.8809682,15.0877111 13.0644881,14.8741096 13.2372154,14.5376187 L13.2372154,13.3976245 L13.5562194,13.2486957 L13.5562194,15.0072663 L13.2372154,15.1561951 Z M14.1958468,14.7086527 L14.1958468,12.9500822 L14.5148509,12.8011534 L14.5148509,13.1314926 C14.6703054,12.8127814 14.8700183,12.5964781 15.1139956,12.4825759 C15.3493364,12.3727058 15.5096465,12.4209304 15.5949306,12.6272514 C15.7460669,12.3094767 15.9425412,12.0941455 16.1843594,11.9812514 C16.3398139,11.9086766 16.4601814,11.8980924 16.5454655,11.9494987 C16.6307496,12.0009049 16.673391,12.1086519 16.673391,12.2727428 L16.673391,13.5519976 L16.3527676,13.7016824 L16.3527676,12.4726262 C16.3527676,12.2718307 16.2734222,12.2084773 16.1147291,12.2825641 C15.9495586,12.3596748 15.7762942,12.5576932 15.5949306,12.8766252 L15.5949306,14.0554828 L15.2743072,14.2051675 L15.2743072,12.9761113 C15.2743072,12.7742363 15.1933425,12.7110992 15.0314107,12.7866979 C14.8705585,12.8617927 14.6983736,13.0598468 14.5148509,13.3808663 L14.5148509,14.5597239 L14.1958468,14.7086527 Z M17.2919674,13.2632118 L17.2919674,11.5046412 L17.6109714,11.3557124 L17.6109714,11.6860517 C17.766426,11.3673405 17.9661388,11.1510371 18.2101161,11.037135 C18.445457,10.9272648 18.605767,10.9754895 18.6910511,11.1818105 C18.8421875,10.8640358 19.0386618,10.6487046 19.2804799,10.5358105 C19.4359345,10.4632357 19.556302,10.4526515 19.641586,10.5040578 C19.7268701,10.555464 19.7695115,10.663211 19.7695115,10.8273018 L19.7695115,12.1065567 L19.4488882,12.2562414 L19.4488882,11.0271852 C19.4488882,10.8263898 19.3695428,10.7630364 19.2108496,10.8371232 C19.0456792,10.9142339 18.8724147,11.1122523 18.6910511,11.4311842 L18.6910511,12.6100418 L18.3704278,12.7597266 L18.3704278,11.5306704 C18.3704278,11.3287954 18.2894631,11.2656583 18.1275313,11.341257 C17.966679,11.4163518 17.7944941,11.6144059 17.6109714,11.9354254 L17.6109714,13.114283 L17.2919674,13.2632118 Z M21.6770586,11.159332 C21.4633086,11.323895 21.2803284,11.4417062 21.1281125,11.5127691 C20.8690217,11.6337271 20.6577038,11.6462895 20.4941527,11.5504568 C20.3306016,11.454624 20.2488273,11.2696082 20.2488273,10.9954037 C20.2488273,10.728756 20.3208858,10.4765104 20.4650051,10.2386593 C20.6091244,10.0008083 20.793454,9.82947017 21.0179995,9.7246399 C21.2306699,9.62535354 21.3950282,9.62418899 21.5110793,9.72114623 C21.6271305,9.81810347 21.6851551,10.0058406 21.6851551,10.2843633 L21.6835358,10.3838972 L20.5743085,10.9017461 C20.620729,11.2978585 20.8252998,11.4112424 21.188027,11.2419012 C21.3208111,11.1799102 21.48382,11.0681841 21.6770586,10.9067196 L21.6770586,11.159332 Z M20.5888823,10.6552844 L21.3645318,10.2931681 C21.3645318,9.96606591 21.242545,9.85946745 20.9985677,9.97336957 C20.753511,10.0877757 20.6169505,10.3150783 20.5888823,10.6552844 Z M22.2357205,10.9551934 L22.2357205,9.19662287 L22.5547246,9.04769407 L22.5547246,9.37803329 C22.6810314,9.07292993 22.8645513,8.86418631 23.1052899,8.75179616 C23.1376763,8.73667641 23.1716815,8.72349973 23.2073065,8.71226573 L23.2073065,9.01021876 C23.1522496,9.01757006 23.1036708,9.03107335 23.0615686,9.05072902 C22.8596936,9.14497547 22.6907473,9.34367672 22.5547246,9.64683874 L22.5547246,10.8062646 L22.2357205,10.9551934 Z M24.5626688,9.03004225 L24.5626688,8.79038439 L26.000616,8.11907082 L26.000616,8.35872869 L24.5626688,9.03004225 Z M27.6004942,8.45061928 L27.6004942,6.05404062 L28.2530761,5.74937917 C28.5423943,5.6143094 28.7502036,5.56614115 28.8765104,5.60487298 C29.0028172,5.6436048 29.0659697,5.77470169 29.0659697,5.99816757 C29.0659697,6.25294027 28.9796074,6.49297189 28.8068801,6.71826964 C28.6341528,6.94356738 28.3944974,7.12778031 28.0879065,7.27091395 L27.9373107,7.34122044 L27.9373107,8.29337466 L27.6004942,8.45061928 Z M27.9373107,7.08375016 L28.074952,7.01949154 C28.276827,6.9252451 28.432819,6.80599964 28.5429326,6.66175159 C28.6530462,6.51750354 28.7081022,6.36063756 28.7081022,6.19114894 C28.7081022,6.04756941 28.664921,5.96517351 28.5785574,5.94395876 C28.4921938,5.92274401 28.3480766,5.95925931 28.1462017,6.05350575 L27.9373107,6.15102766 L27.9373107,7.08375016 Z M30.1314756,7.30949943 C29.8799415,7.42692949 29.6791491,7.43727692 29.5290923,7.34054201 C29.3790355,7.2438071 29.3040082,7.05564134 29.3040082,6.7760391 C29.3040082,6.49319822 29.3793054,6.23431292 29.529902,5.99937541 C29.6804985,5.76443791 29.8847994,5.58674482 30.1428108,5.46629081 C30.4008221,5.34583679 30.605123,5.33277189 30.7557196,5.42709572 C30.9063161,5.52141954 30.9816133,5.70891953 30.9816133,5.98960132 C30.9816133,6.27676038 30.9060463,6.53766086 30.7549099,6.77231059 C30.6037736,7.00696031 30.3959642,7.18602147 30.1314756,7.30949943 Z M30.1363335,7.06757362 C30.4742312,6.90982422 30.6431775,6.60317005 30.6431775,6.14760192 C30.6431775,5.69743152 30.4763903,5.55021524 30.1428108,5.70594867 C29.8103108,5.86117811 29.6440633,6.16495302 29.6440633,6.61728251 C29.6440633,7.07069155 29.8081517,7.22078709 30.1363335,7.06757362 Z M31.4803608,6.63928223 L31.4803608,4.88071167 L31.7993648,4.73178287 L31.7993648,5.06212209 C31.9256716,4.75701873 32.1091916,4.54827511 32.3499302,4.43588496 C32.3823165,4.42076521 32.4163217,4.40758853 32.4519467,4.39635453 L32.4519467,4.69430756 C32.3968899,4.70165886 32.3483111,4.71516215 32.3062088,4.73481783 C32.1043338,4.82906427 31.9353875,5.02776552 31.7993648,5.33092754 L31.7993648,6.49035343 L31.4803608,6.63928223 Z M33.3652375,5.79979989 C33.2033057,5.87539865 33.0770008,5.88794504 32.986319,5.83743944 C32.8956372,5.78693384 32.8502969,5.67909744 32.8502969,5.51392701 L32.8502969,4.48080729 L32.6300708,4.58362108 L32.6300708,4.34396321 L32.8502969,4.24114942 L32.8502969,3.92214537 L33.169301,3.74244968 L33.169301,4.09222062 L33.629185,3.87752124 L33.629185,4.11717911 L33.169301,4.33187849 L33.169301,5.30670305 C33.169301,5.53664621 33.2686177,5.60524952 33.467254,5.51251505 C33.5093563,5.49285938 33.5606339,5.46190319 33.6210884,5.41964557 L33.6210884,5.63987171 C33.5228498,5.71272359 33.437567,5.76603245 33.3652375,5.79979989 Z M34.4582717,3.73011543 L34.4582717,5.24902812 L34.1376483,5.3987129 L34.1376483,3.87980021 L33.8882746,3.99622171 L33.8882746,3.75656384 L34.1376483,3.64014234 L34.1376483,3.42963206 C34.1376483,3.01076847 34.328725,2.71213462 34.710884,2.53372157 C34.817759,2.48382639 34.939206,2.44494041 35.0752287,2.41706245 L35.0752287,2.6696748 C34.9316492,2.69244433 34.8166794,2.72398829 34.7303157,2.76430763 C34.6255998,2.81319482 34.554081,2.87168282 34.5157572,2.93977339 C34.4774333,3.00786395 34.4582717,3.10991906 34.4582717,3.24594177 L34.4582717,3.49045756 L34.8971046,3.28558597 L34.8971046,3.52524383 L34.4582717,3.73011543 Z M35.9852809,4.57661819 C35.7337468,4.69404826 35.5329544,4.70439568 35.3828976,4.60766077 C35.2328408,4.51092586 35.1578135,4.3227601 35.1578135,4.04315786 C35.1578135,3.76031699 35.2331107,3.50143168 35.3837073,3.26649418 C35.5343038,3.03155667 35.7386047,2.85386358 35.9966161,2.73340957 C36.2546274,2.61295556 36.4589283,2.59989066 36.6095249,2.69421448 C36.7601214,2.7885383 36.8354186,2.9760383 36.8354186,3.25672008 C36.8354186,3.54387914 36.7598516,3.80477962 36.6087152,4.03942935 C36.4575789,4.27407907 36.2497695,4.45314023 35.9852809,4.57661819 Z M35.9901388,4.33469238 C36.3280365,4.17694298 36.4969828,3.87028882 36.4969828,3.41472069 C36.4969828,2.96455028 36.3301956,2.817334 35.9966161,2.97306743 C35.6641161,3.12829687 35.4978686,3.43207178 35.4978686,3.88440128 C35.4978686,4.33781032 35.6619571,4.48790585 35.9901388,4.33469238 Z M37.3341661,3.90640099 L37.3341661,1.34951065 L37.6531701,1.20058185 L37.6531701,3.75747219 L37.3341661,3.90640099 Z M38.2927975,3.45885861 L38.2927975,1.70028806 L38.6118016,1.55135926 L38.6118016,3.30992981 L38.2927975,3.45885861 Z M38.2927975,1.381284 L38.2927975,1.06227995 L38.6118016,0.913351156 L38.6118016,1.23235521 L38.2927975,1.381284 Z M39.9396357,2.73050589 C39.6881016,2.84793595 39.4873092,2.85828337 39.3372524,2.76154846 C39.1871956,2.66481355 39.1121683,2.4766478 39.1121683,2.19704556 C39.1121683,1.91420468 39.1874655,1.65531937 39.3380621,1.42038187 C39.4886586,1.18544437 39.6929595,1.00775128 39.9509709,0.887297263 C40.2089822,0.766843251 40.4132831,0.753778352 40.5638797,0.848102176 C40.7144762,0.942425999 40.7897734,1.12992599 40.7897734,1.41060778 C40.7897734,1.69776684 40.7142063,1.95866732 40.56307,2.19331704 C40.4119337,2.42796677 40.2041243,2.60702793 39.9396357,2.73050589 Z M39.9444936,2.48858007 C40.2823913,2.33083068 40.4513376,2.02417651 40.4513376,1.56860838 C40.4513376,1.11843798 40.2845504,0.971221699 39.9509709,1.12695513 C39.6184709,1.28218457 39.4522234,1.58595948 39.4522234,2.03828897 C39.4522234,2.49169801 39.6163118,2.64179354 39.9444936,2.48858007 Z" id="tab-title" fill="#000000"></path>
            </g>
        </g>
    </g>
</svg>