<svg width="424" height="313" viewBox="0 0 424 313" xmlns="http://www.w3.org/2000/svg"><g fill="#CE0176" fill-rule="evenodd"><g transform="rotate(99 186.34 213.598)"><circle cx="22" cy="175" r="21"/><circle cx="21.65" cy="96.08" r="21"/><circle cx="21.93" cy="21.12" r="21"/><circle cx="22" cy="252" r="21"/><circle cx="22" cy="330" r="21"/><circle cx="22" cy="407" r="21"/></g><g transform="rotate(99 156.447 248.598)"><circle cx="22" cy="175" r="21"/><circle cx="21.65" cy="96.08" r="21"/><circle cx="21.93" cy="21.12" r="21"/><circle cx="22" cy="252" r="21"/><circle cx="22" cy="330" r="21"/><circle cx="22" cy="407" r="21"/></g><g transform="rotate(99 126.554 283.598)"><circle cx="22" cy="175" r="21"/><circle cx="21.65" cy="96.08" r="21"/><circle cx="21.93" cy="21.12" r="21"/><circle cx="22" cy="252" r="21"/><circle cx="22" cy="330" r="21"/><circle cx="22" cy="407" r="21"/></g><g transform="rotate(99 96.661 318.598)"><circle cx="22" cy="175" r="21"/><circle cx="21.65" cy="96.08" r="21"/><circle cx="21.93" cy="21.12" r="21"/><circle cx="21.93" cy="21.12" r="21"/><circle cx="22" cy="252" r="21"/><circle cx="22" cy="330" r="21"/><circle cx="22" cy="407" r="21"/></g></g></svg>