<?xml version="1.0" encoding="UTF-8"?>
<svg width="1892px" height="551px" viewBox="0 0 1892 551" version="1.1" xmlns="http://www.w3.org/2000/svg" xmlns:xlink="http://www.w3.org/1999/xlink">
    <!-- Generator: Sketch 42 (36781) - http://www.bohemiancoding.com/sketch -->
    <title>Artboard 3</title>
    <desc>Created with Sketch.</desc>
    <defs></defs>
    <g id="Page-1" stroke="none" stroke-width="1" fill="none" fill-rule="evenodd">
        <g id="Artboard-3" fill="#CE0176">
            <g id="Group-2" transform="translate(1000.000000, 283.000000) scale(-1, 1) translate(-1000.000000, -283.000000) translate(108.000000, 16.000000)">
                <g id="Group" transform="translate(1762.000000, 137.235294) scale(-1, 1) translate(-1762.000000, -137.235294) translate(1741.000000, 0.235294)">
                    <circle id="Oval" cx="21" cy="21" r="21"></circle>
                    <circle id="Oval" cx="21" cy="98" r="21"></circle>
                    <circle id="Oval" cx="21" cy="176" r="21"></circle>
                    <circle id="Oval" cx="21" cy="253" r="21"></circle>
                </g>
                <g id="Group" transform="translate(1653.235294, 153.470588) scale(-1, 1) translate(-1653.235294, -153.470588) translate(1632.235294, 16.470588)">
                    <circle id="Oval" cx="21" cy="21" r="21"></circle>
                    <circle id="Oval" cx="21" cy="98" r="21"></circle>
                    <circle id="Oval" cx="21" cy="176" r="21"></circle>
                    <circle id="Oval" cx="21" cy="253" r="21"></circle>
                </g>
                <g id="Group" transform="translate(1544.470588, 169.705882) scale(-1, 1) translate(-1544.470588, -169.705882) translate(1523.470588, 32.705882)">
                    <circle id="Oval" cx="21" cy="21" r="21"></circle>
                    <circle id="Oval" cx="21" cy="98" r="21"></circle>
                    <circle id="Oval" cx="21" cy="176" r="21"></circle>
                    <circle id="Oval" cx="21" cy="253" r="21"></circle>
                </g>
                <g id="Group" transform="translate(1435.705882, 185.941176) scale(-1, 1) translate(-1435.705882, -185.941176) translate(1414.705882, 48.941176)">
                    <circle id="Oval" cx="21" cy="21" r="21"></circle>
                    <circle id="Oval" cx="21" cy="98" r="21"></circle>
                    <circle id="Oval" cx="21" cy="176" r="21"></circle>
                    <circle id="Oval" cx="21" cy="253" r="21"></circle>
                </g>
                <g id="Group" transform="translate(1326.941176, 202.176471) scale(-1, 1) translate(-1326.941176, -202.176471) translate(1305.941176, 65.176471)">
                    <circle id="Oval" cx="21" cy="21" r="21"></circle>
                    <circle id="Oval" cx="21" cy="98" r="21"></circle>
                    <circle id="Oval" cx="21" cy="176" r="21"></circle>
                    <circle id="Oval" cx="21" cy="253" r="21"></circle>
                </g>
                <g id="Group" transform="translate(1218.176471, 218.411765) scale(-1, 1) translate(-1218.176471, -218.411765) translate(1197.176471, 81.411765)">
                    <circle id="Oval" cx="21" cy="21" r="21"></circle>
                    <circle id="Oval" cx="21" cy="98" r="21"></circle>
                    <circle id="Oval" cx="21" cy="176" r="21"></circle>
                    <circle id="Oval" cx="21" cy="253" r="21"></circle>
                </g>
                <g id="Group" transform="translate(1109.411765, 234.647059) scale(-1, 1) translate(-1109.411765, -234.647059) translate(1088.411765, 97.647059)">
                    <circle id="Oval" cx="21" cy="21" r="21"></circle>
                    <circle id="Oval" cx="21" cy="98" r="21"></circle>
                    <circle id="Oval" cx="21" cy="176" r="21"></circle>
                    <circle id="Oval" cx="21" cy="253" r="21"></circle>
                </g>
                <g id="Group" transform="translate(1000.647059, 250.882353) scale(-1, 1) translate(-1000.647059, -250.882353) translate(979.647059, 113.882353)">
                    <circle id="Oval" cx="21" cy="21" r="21"></circle>
                    <circle id="Oval" cx="21" cy="98" r="21"></circle>
                    <circle id="Oval" cx="21" cy="176" r="21"></circle>
                    <circle id="Oval" cx="21" cy="253" r="21"></circle>
                </g>
                <g id="Group" transform="translate(891.882353, 267.117647) scale(-1, 1) translate(-891.882353, -267.117647) translate(870.882353, 130.117647)">
                    <circle id="Oval" cx="21" cy="21" r="21"></circle>
                    <circle id="Oval" cx="21" cy="98" r="21"></circle>
                    <circle id="Oval" cx="21" cy="176" r="21"></circle>
                    <circle id="Oval" cx="21" cy="253" r="21"></circle>
                </g>
                <g id="Group" transform="translate(783.117647, 283.352941) scale(-1, 1) translate(-783.117647, -283.352941) translate(762.117647, 146.352941)">
                    <circle id="Oval" cx="21" cy="21" r="21"></circle>
                    <circle id="Oval" cx="21" cy="98" r="21"></circle>
                    <circle id="Oval" cx="21" cy="176" r="21"></circle>
                    <circle id="Oval" cx="21" cy="253" r="21"></circle>
                </g>
                <g id="Group" transform="translate(674.352941, 299.588235) scale(-1, 1) translate(-674.352941, -299.588235) translate(653.352941, 162.588235)">
                    <circle id="Oval" cx="21" cy="21" r="21"></circle>
                    <circle id="Oval" cx="21" cy="98" r="21"></circle>
                    <circle id="Oval" cx="21" cy="176" r="21"></circle>
                    <circle id="Oval" cx="21" cy="253" r="21"></circle>
                </g>
                <g id="Group" transform="translate(565.588235, 315.823529) scale(-1, 1) translate(-565.588235, -315.823529) translate(544.588235, 178.823529)">
                    <circle id="Oval" cx="21" cy="21" r="21"></circle>
                    <circle id="Oval" cx="21" cy="98" r="21"></circle>
                    <circle id="Oval" cx="21" cy="176" r="21"></circle>
                    <circle id="Oval" cx="21" cy="253" r="21"></circle>
                </g>
                <g id="Group" transform="translate(456.823529, 332.058824) scale(-1, 1) translate(-456.823529, -332.058824) translate(435.823529, 195.058824)">
                    <circle id="Oval" cx="21" cy="21" r="21"></circle>
                    <circle id="Oval" cx="21" cy="98" r="21"></circle>
                    <circle id="Oval" cx="21" cy="176" r="21"></circle>
                    <circle id="Oval" cx="21" cy="253" r="21"></circle>
                </g>
                <g id="Group" transform="translate(348.058824, 348.294118) scale(-1, 1) translate(-348.058824, -348.294118) translate(327.058824, 211.294118)">
                    <circle id="Oval" cx="21" cy="21" r="21"></circle>
                    <circle id="Oval" cx="21" cy="98" r="21"></circle>
                    <circle id="Oval" cx="21" cy="176" r="21"></circle>
                    <circle id="Oval" cx="21" cy="253" r="21"></circle>
                </g>
                <g id="Group" transform="translate(239.294118, 364.529412) scale(-1, 1) translate(-239.294118, -364.529412) translate(218.294118, 227.529412)">
                    <circle id="Oval" cx="21" cy="21" r="21"></circle>
                    <circle id="Oval" cx="21" cy="98" r="21"></circle>
                    <circle id="Oval" cx="21" cy="176" r="21"></circle>
                    <circle id="Oval" cx="21" cy="253" r="21"></circle>
                </g>
                <g id="Group" transform="translate(130.529412, 380.764706) scale(-1, 1) translate(-130.529412, -380.764706) translate(109.529412, 243.764706)">
                    <circle id="Oval" cx="21" cy="21" r="21"></circle>
                    <circle id="Oval" cx="21" cy="98" r="21"></circle>
                    <circle id="Oval" cx="21" cy="176" r="21"></circle>
                    <circle id="Oval" cx="21" cy="253" r="21"></circle>
                </g>
                <g id="Group" transform="translate(21.764706, 397.000000) scale(-1, 1) translate(-21.764706, -397.000000) translate(0.764706, 260.000000)">
                    <circle id="Oval" cx="21" cy="21" r="21"></circle>
                    <circle id="Oval" cx="21" cy="98" r="21"></circle>
                    <circle id="Oval" cx="21" cy="176" r="21"></circle>
                    <circle id="Oval" cx="21" cy="253" r="21"></circle>
                </g>
            </g>
            <g id="Group">
                <circle id="Oval" cx="21" cy="21" r="21"></circle>
                <circle id="Oval" cx="21" cy="98" r="21"></circle>
                <circle id="Oval" cx="21" cy="176" r="21"></circle>
                <circle id="Oval" cx="21" cy="253" r="21"></circle>
            </g>
        </g>
    </g>
</svg>