<svg viewBox="0 0 317 156" xmlns="http://www.w3.org/2000/svg"><g fill="none" fill-rule="evenodd"><path d="M110.283 13.077L19.258 46.926c-5.423 2.474-3.57 17.154 1.844 19.647l183.78 84.655a23.888 23.888 0 0 0 19.9.037l84.86-38.87c5.62-2.566 7.95-15.405 2.33-17.991L122.623 13.1a14.812 14.812 0 0 0-12.34-.023" fill="#7F7772"/><path d="M110.283 12.077L19.258 45.926c-5.423 2.474-3.57 17.154 1.844 19.647l183.78 84.655a23.884 23.884 0 0 0 19.9.037l84.86-38.87c5.62-2.566 7.95-15.405 2.33-17.991L122.623 12.1a14.812 14.812 0 0 0-12.34-.023" fill="#D9C8C1"/><path d="M214.423 147.833c-.47-3.769 4.57-4.376 7.54-6.126L19.258 45.742a4.06 4.06 0 0 0-1.337.998 5.5 5.5 0 0 0-.686.963 7.505 7.505 0 0 0-.53 1.16 9.48 9.48 0 0 0-.208.642c-.315 1.102-.476 2.353-.495 3.66-.008.523.007 1.055.043 1.59.037.535.095 1.072.174 1.607.275 1.872.805 3.71 1.55 5.253.211.442.441.86.688 1.248.247.387.51.745.79 1.068.28.322.573.61.883.854.31.245.634.45.972.604l183.781 84.655a23.892 23.892 0 0 0 16.05 1.404c-3.15.041-6.12-.496-6.51-3.615" fill="#C2B4AF"/><path d="M110.233 2.077l-89.157 40.83c-5.423 2.474-5.437 10.172-.024 12.666l183.78 84.654a23.88 23.88 0 0 0 19.9.037l84.86-38.87c5.62-2.566 5.64-10.552.02-13.139L122.573 2.1a14.808 14.808 0 0 0-12.34-.023" fill="#F8EADD"/><path d="M128.797 11.956l-93.2 42.678c-.794.362-.797 1.489-.004 1.854l163.934 75.315c.84.384 1.8.386 2.63.005l92.57-42.388c.92-.417.92-1.715.01-2.135L130.777 11.96a2.38 2.38 0 0 0-1.98-.004" fill="#7EA7B5"/><path d="M129.41 11.568l-.25-.557L35.954 53.69c-.625.282-.96.9-.954 1.485a1.621 1.621 0 0 0 .95 1.482l163.94 75.316c.5.23 1.03.345 1.57.345s1.07-.114 1.57-.34L295.6 89.59c.68-.31 1.05-.984 1.04-1.626a1.759 1.759 0 0 0-1.04-1.623L131.65 11.015a3.03 3.03 0 0 0-1.25-.273c-.42 0-.85.09-1.24.27l.25.556.26.557a1.76 1.76 0 0 1 1.46.003l163.96 75.326c.23.107.32.292.33.51-.01.217-.1.403-.33.51l-92.57 42.39a2.537 2.537 0 0 1-2.12-.005L36.462 55.542a.39.39 0 0 1-.237-.369.392.392 0 0 1 .24-.37l93.205-42.679-.26-.557M85.611 22.815l-19.14 8.765a.8.8 0 1 0 .66 1.457l19.14-8.765a.8.8 0 1 0-.66-1.457" fill="#605956"/><path d="M213.14 125.667L101 24.924 129.44 11.9a1.745 1.745 0 0 1 1.46.003L294.86 87.23c.23.107.32.292.33.51-.01.217-.1.403-.33.51l-81.72 37.418" fill="#8CB1BC"/><path d="M213.06 126.73l-.5-.45 81.72-37.418c.23-.107.32-.293.33-.51-.01-.218-.1-.403-.33-.51L130.32 12.516a1.745 1.745 0 0 0-1.46-.003l-28.44 13.024-.42-.37 28.6-13.21c.32-.143.65-.215.99-.215.34 0 .68.073.99.218l163.6 75.471c.92.42.91 1.718 0 2.135l-81.12 37.163" fill="#726B67"/><path d="M109.939 2.784l-.3-.643-89.151 40.83c-2.98 1.356-4.495 4.187-4.488 6.982-.007 2.785 1.497 5.607 4.463 6.97l183.786 84.653a24.569 24.569 0 0 0 20.48.038l84.86-38.87c3.08-1.402 4.65-4.328 4.64-7.218.01-2.88-1.55-5.797-4.61-7.206L122.569 2.165a15.488 15.488 0 0 0-6.49-1.423c-2.19 0-4.39.466-6.44 1.4l.3.642.29.643a14.112 14.112 0 0 1 5.85-1.272c2.02 0 4.03.432 5.9 1.294l187.04 86.155c2.54 1.174 3.79 3.53 3.8 5.922-.01 2.401-1.26 4.764-3.82 5.932l-84.86 38.871a23.142 23.142 0 0 1-9.61 2.088c-3.31 0-6.62-.708-9.69-2.125L21.054 55.638c-2.439-1.127-3.634-3.388-3.641-5.685.007-2.306 1.21-4.574 3.662-5.696l89.154-40.83-.29-.643" fill="#9A948A"/><path d="M62.178 34.687c-.13-.265-.38-.493-.71-.658-.36-.18-.83-.287-1.34-.287-.792 0-1.47.257-1.836.647-.185.197-.292.427-.292.676a.88.88 0 0 0 .042.27c.196.608 1.043 1.053 2.086 1.053 1.2 0 2.13-.58 2.13-1.323a.974.974 0 0 0-.08-.378M73.74 24.362c-.08-.173-.24-.323-.46-.432a2.031 2.031 0 0 0-.88-.188c-.52 0-.97.17-1.21.425a.649.649 0 0 0-.19.443l.03.178c.13.4.68.691 1.37.691.78 0 1.4-.382 1.4-.869l-.06-.248" fill="#4C4644"/><path d="M214.275 151.86c-3.41 0-6.82-.73-9.99-2.19L20.504 65.015l-.029-.013.029.013 183.781 84.655c.03.011.05.023.08.034a23.883 23.883 0 0 0 9.91 2.156M20.464 64.996l-.018-.008.018.008m-.031-.014l-.016-.008.016.008m-.03-.015l-.016-.008.016.008m-.03-.015l-.015-.007.015.007m-.069-.036l-.016-.008a.08.08 0 0 0 .016.008m-.031-.016l-.014-.007.014.007m-.029-.015l-.014-.008.014.008m-.029-.016l-.014-.008.014.008m-.057-.032l-.013-.008.013.008m-.043-.025l-.012-.007.012.007m-.058-.035l-.009-.005.009.005m-.028-.017l-.007-.004.007.004" fill="#746C68"/><path d="M214.276 151.86a23.883 23.883 0 0 1-9.91-2.156 23.815 23.815 0 0 0 9.9 2.152c2.04 0 4.08-.26 6.07-.782-.11.002-.21.002-.32.002-2.6 0-5.03-.445-5.9-2.489a24.071 24.071 0 0 0 10.35-2.165l4.95-2.268c.27.742.79 1.187 1.44 1.187.17 0 .36-.035.56-.107.98-.365 1.81-1.589 2.09-2.954l4.08-1.869c.15.43.45.69.82.69.1 0 .2-.02.31-.06.56-.209 1.03-.91 1.18-1.689l19.59-8.97v.604a.527.527 0 0 0 .68.506v-.002h.01v-.002a.714.714 0 0 0 .06-.02l11.59-5.37c0-.003.01-.006.01-.009.18-.09.29-.272.29-.473v-1.029l17.38-7.959c.13.492.45.793.85.793.1 0 .2-.019.31-.06.59-.219 1.08-.988 1.2-1.816l2.34-1.07c.13.511.45.825.86.825.1 0 .2-.019.31-.059.6-.223 1.1-1.014 1.21-1.857l2.33-1.065c.12.532.45.861.86.861.1 0 .21-.019.32-.06.6-.226 1.11-1.038 1.21-1.897l2.31-1.059c.12.552.45.896.87.896.1 0 .21-.02.32-.06.61-.23 1.13-1.064 1.22-1.938l3.92-1.796c1.96-.896 3.53-3.038 4.5-5.562-.56 3.902-2.56 7.834-5.4 9.133l-84.86 38.87c-.15.067-.3.133-.44.197a23.904 23.904 0 0 1-9.47 1.956M20.087 64.795a.067.067 0 0 0-.011-.007l.011.007m-.028-.018h-.001c-.003 0-.006-.004-.009-.005l.01.005m-.029-.017l-.007-.004.007.004m-.029-.018H20h.001" fill="#B5A8A3"/><path d="M214.458 152.557c-3.38 0-6.76-.717-9.9-2.152-.03-.01-.05-.023-.08-.034L20.697 65.716l-.029-.013a.11.11 0 0 1-.011-.006.142.142 0 0 1-.018-.008.163.163 0 0 1-.013-.006l-.016-.008-.014-.007-.016-.008a.091.091 0 0 1-.014-.007l-.015-.007a.091.091 0 0 0-.014-.007l-.018-.01-.022-.012-.016-.008-.015-.008-.014-.007-.015-.008-.014-.008-.015-.008-.014-.008-.015-.008a.064.064 0 0 0-.014-.008l-.014-.008-.013-.008-.03-.017-.012-.007a.15.15 0 0 0-.017-.01l-.011-.007a.1.1 0 0 1-.017-.01.031.031 0 0 1-.01-.006l-.019-.012a.057.057 0 0 0-.007-.004l-.022-.014h-.001c-2.051-1.284-3.523-4.356-4.192-7.7.869 1.901 2.049 3.407 3.478 4.066l12.169 5.605v.731c0 .607.353 1.16.905 1.413l5.088 2.345a.575.575 0 0 0 .815-.522v-.83l14.797 6.814v.912c0 .628.365 1.2.936 1.462l14.2 6.54c.16.074.33.11.49.11.62 0 1.19-.503 1.19-1.187v-.093l2.27 1.047v1.008c0 .63.36 1.2.93 1.462l14.2 6.54a1.184 1.184 0 0 0 1.68-1.075v-.19l115.47 53.184a23.972 23.972 0 0 0 9.69 2.203c.87 2.044 3.3 2.49 5.9 2.49.11 0 .21 0 .32-.003-1.99.521-4.03.782-6.07.782" fill="#A39894"/><path d="M53 75.928v2.206c0 .628.365 1.199.936 1.462l14.2 6.539c.78.361 1.68-.212 1.68-1.076v-2.478c0-.462-.27-.882-.69-1.076L54.68 74.852A1.185 1.185 0 0 0 53 75.928" fill="#BCAEA9"/><path d="M69.816 84.234L53 76.49v-.562a1.186 1.186 0 0 1 1.68-1.076l14.446 6.653c.42.194.69.614.69 1.076v1.653" fill="#D2C5BC"/><path d="M53.236 75.164H53v2.206c0 .72.419 1.375 1.073 1.676l14.199 6.54a1.42 1.42 0 0 0 2.01-1.29v-2.479c0-.554-.32-1.058-.82-1.29l-14.448-6.653a1.426 1.426 0 0 0-.594-.132A1.423 1.423 0 0 0 53 75.164h.471a.951.951 0 0 1 1.346-.862l14.445 6.653c.33.155.55.492.55.862v2.478a.951.951 0 0 1-1.35.862L54.27 78.618a1.374 1.374 0 0 1-.799-1.248v-2.206h-.235" fill="#726A65"/><path d="M72 84.928v2.206c0 .629.36 1.199.93 1.462l14.2 6.539c.78.362 1.68-.212 1.68-1.075v-2.48c0-.461-.27-.881-.69-1.075l-14.44-6.652A1.183 1.183 0 0 0 72 84.928" fill="#BCAEA9"/><path d="M88.81 93.233L72 85.49v-.562a1.184 1.184 0 0 1 1.62-1.102l.03.016.03.011 14.44 6.652c.42.194.69.614.69 1.076v1.653" fill="#D4C6BE"/><path d="M72.24 84.163H72v2.206c0 .72.42 1.375 1.08 1.676l14.19 6.54c.2.09.4.131.6.131a1.434 1.434 0 0 0 1.42-1.42v-2.48a1.43 1.43 0 0 0-.83-1.29l-14.44-6.653a1.42 1.42 0 0 0-2.02 1.29h.47a.951.951 0 0 1 1.35-.86l14.44 6.651c.34.155.55.492.55.862v2.48a.95.95 0 0 1-.94.95.933.933 0 0 1-.4-.09l-14.2-6.539c-.48-.224-.8-.712-.8-1.248v-2.206h-.23" fill="#726A65"/></g></svg>