<svg viewBox="0 0 604 485" xmlns="http://www.w3.org/2000/svg" xmlns:xlink="http://www.w3.org/1999/xlink"><defs><path id="a" d="M.793.85h374.594v483.856H.793z"/><path id="c" d="M.793.85h374.594v483.856H.793z"/><path id="e" d="M.793.85h374.594v483.856H.793z"/><path id="g" d="M.793.85h374.594v483.856H.793z"/><path id="i" d="M.793.85h374.594v483.856H.793z"/><path id="k" d="M.793.85h374.594v483.856H.793z"/><path id="m" d="M.793.85h374.594v483.856H.793z"/><path id="o" d="M.793.85h374.594v483.856H.793z"/><path id="q" d="M.793.85h374.594v483.856H.793z"/><path id="s" d="M.793.85h374.594v483.856H.793z"/><path id="u" d="M.793.85h374.594v483.856H.793z"/><path id="w" d="M.793.85h374.594v483.856H.793z"/><path id="y" d="M.793.85h374.594v483.856H.793z"/><linearGradient x1="50%" y1="0%" x2="50%" y2="100%" id="A"><stop stop-color="#D7D7D7" offset="0%"/><stop stop-color="#ABABAB" offset="100%"/></linearGradient><path id="B" d="M.793.85h374.594v483.856H.793z"/><linearGradient x1="50%" y1="0%" x2="50%" y2="100%" id="D"><stop stop-color="#AEA6A6" offset="0%"/><stop stop-color="#DEDDDC" offset="100%"/></linearGradient><path id="E" d="M.793.85h374.594v483.856H.793z"/><linearGradient x1="0%" y1="50%" y2="50%" id="G"><stop stop-color="#6C6C6C" offset="0%"/><stop stop-color="#505050" offset="100%"/></linearGradient><path id="H" d="M.793.85h374.594v483.856H.793z"/><linearGradient x1="0%" y1="50%" y2="50%" id="J"><stop stop-color="#C9CBC9" offset="0%"/><stop stop-color="#BCBDBE" offset="100%"/></linearGradient><path id="K" d="M.793.85h374.594v483.856H.793z"/><path id="M" d="M.793.85h374.594v483.856H.793z"/><linearGradient x1="50%" y1="0%" x2="50%" y2="100%" id="O"><stop stop-color="#9D9F9D" offset="0%"/><stop stop-color="#C4C1C4" offset="100%"/></linearGradient><linearGradient x1="50%" y1="0%" x2="50%" y2="100%" id="P"><stop stop-color="#E2E5E5" stop-opacity=".32" offset="0%"/><stop stop-color="#EFEEEE" offset="100%"/></linearGradient><path id="Q" d="M.793.85h374.594v483.856H.793z"/><linearGradient x1="50%" y1="0%" x2="50%" y2="100%" id="S"><stop stop-color="#3C3C3C" offset="0%"/><stop stop-color="#474747" offset="100%"/></linearGradient><path id="T" d="M.793.85h374.594v483.856H.793z"/><linearGradient x1="50%" y1="0%" x2="50%" y2="100%" id="V"><stop stop-color="#EEE" offset="0%"/><stop stop-color="#D5D5D5" offset="100%"/></linearGradient><path id="W" d="M.793.85h374.594v483.856H.793z"/><path id="Y" d="M.793.85h374.594v483.856H.793z"/><path id="aa" d="M.793.85h374.594v483.856H.793z"/><path id="ac" d="M.793.85h374.594v483.856H.793z"/><linearGradient x1="50%" y1="0%" x2="50%" y2="100%" id="ae"><stop stop-color="#F1EEF0" offset="0%"/><stop stop-color="#ECEAEA" offset="100%"/></linearGradient></defs><g fill="none" fill-rule="evenodd"><path d="M395.971 384.143l-63.142 28.8c-4.294 1.958-4.954 7.786-1.207 10.655l66.937 51.25a22.356 22.356 0 0 0 22.868 2.59l96.082-43.825c5.182-2.363 6.007-12.832.593-14.604l-117.591-35.12a6.25 6.25 0 0 0-4.54.254" fill="#E9E1D9" fill-rule="nonzero"/><path d="M400.511 383.889a6.25 6.25 0 0 0-4.54.254l-63.142 28.8c-4.294 1.958-4.954 7.786-1.207 10.654l66.937 51.251a22.35 22.35 0 0 0 19.346 3.84v-89.604l-17.394-5.195" fill="#D4CCC5" fill-rule="nonzero"/><path d="M400.511 383.889a6.25 6.25 0 0 0-4.54.254l-63.142 28.8c-4.294 1.958-4.954 7.786-1.207 10.654l66.937 51.251a22.344 22.344 0 0 0 2.517 1.669v-92.459l-.565-.169" fill="#94928B" fill-rule="nonzero"/><path d="M395.971 379.808l-63.142 28.8c-4.294 1.958-4.954 7.785-1.207 10.655l66.937 51.25a22.356 22.356 0 0 0 22.868 2.59l96.082-43.824c5.182-2.364 4.764-9.861-.65-11.633l-116.348-38.092a6.256 6.256 0 0 0-4.54.254" fill="#BCB8B1" fill-rule="nonzero"/><g transform="translate(228)"><mask id="b" fill="#fff"><use xlink:href="#a"/></mask><path d="M179.361 381.903a6.253 6.253 0 0 0-4.541.253l-63.142 28.8c-4.293 1.959-6.615 10.263-2.868 13.132l40.705 30.529 87.901-53.707-58.055-19.007" fill="#A4A19A" fill-rule="nonzero" mask="url(#b)"/></g><g transform="translate(228)"><mask id="d" fill="#fff"><use xlink:href="#c"/></mask><path d="M.793 178.586v289.887c0 8.763 13.875 19.123 21.848 15.486l338.781-162.763a12.04 12.04 0 0 0 7.044-10.954l6.921-298.127c0-8.763-15.985-13.694-23.958-10.058L14.518 157.241A23.46 23.46 0 0 0 .793 178.586" fill="#BCB8B1" fill-rule="nonzero" mask="url(#d)"/></g><g transform="translate(228)"><mask id="f" fill="#fff"><use xlink:href="#e"/></mask><path d="M14.25 157.375A23.453 23.453 0 0 0 .793 178.586v289.887c0 8.763 13.875 19.123 21.848 15.486L56.3 467.788V163.799l-42.05-6.424" fill="#AAA6A0" fill-rule="nonzero" mask="url(#f)"/></g><g transform="translate(228)"><mask id="h" fill="#fff"><use xlink:href="#g"/></mask><path d="M9.403 183.854V473.74c0 8.763 9.063 14.591 17.036 10.954l343.594-158.231a12.04 12.04 0 0 0 7.043-10.954V18.279c0-8.763-9.063-14.591-17.036-10.954L23.128 162.508a23.461 23.461 0 0 0-13.725 21.346" fill="#1F262D" fill-rule="nonzero" mask="url(#h)"/></g><g transform="translate(228)"><mask id="j" fill="#fff"><use xlink:href="#i"/></mask><path d="M9.403 473.74c0 8.763 9.063 14.591 17.036 10.954l343.594-158.231a12.04 12.04 0 0 0 7.043-10.954v-39.076L9.403 445.646v28.094" fill="#E9E1D9" fill-rule="nonzero" mask="url(#j)"/></g><g transform="translate(228)"><mask id="l" fill="#fff"><use xlink:href="#k"/></mask><path d="M21.44 485.794c-6.336-.001-12.037-5.104-12.037-12.054v-4.345c0 6.951 5.701 12.054 12.038 12.054 1.652 0 3.349-.347 4.998-1.1l343.594-158.231a12.04 12.04 0 0 0 7.043-10.954v4.345a12.04 12.04 0 0 1-7.043 10.954L26.439 484.694a12.006 12.006 0 0 1-4.999 1.1" fill="#CAC5BE" fill-rule="nonzero" mask="url(#l)"/></g><g transform="translate(228)"><mask id="n" fill="#fff"><use xlink:href="#m"/></mask><path d="M25.406 182.901v232.401c0 3.659 3.784 6.092 7.113 4.573l327.183-149.234a5.026 5.026 0 0 0 2.94-4.573V33.666c0-3.658-3.783-6.091-7.112-4.572L28.347 178.328a5.027 5.027 0 0 0-2.941 4.573" fill="#303945" fill-rule="nonzero" mask="url(#n)"/></g><g transform="translate(228)"><mask id="p" fill="#fff"><use xlink:href="#o"/></mask><path d="M200.305 387.234c-2.121 0-4.03-1.708-4.03-4.035v-7.243a4.03 4.03 0 0 1 2.358-3.667l5.518-2.517a4.018 4.018 0 0 1 1.673-.368c2.122 0 4.031 1.709 4.031 4.036v7.242a4.03 4.03 0 0 1-2.358 3.667l-5.518 2.517a4.02 4.02 0 0 1-1.674.368" fill="#5E646B" fill-rule="nonzero" mask="url(#p)"/></g><g transform="translate(228)"><mask id="r" fill="#fff"><use xlink:href="#q"/></mask><path d="M183.874 365.35l2.536-15.667 173.292-79.042a5.026 5.026 0 0 0 2.94-4.573V33.666c0-2.901-2.379-5.032-5.025-5.032a5 5 0 0 0-2.087.46L228.954 86.827l3.344-20.664L360.04 7.325c1.65-.753 3.346-1.1 4.999-1.1 6.336 0 12.037 5.104 12.037 12.054v258.153L183.874 365.35" fill="#30353C" fill-rule="nonzero" mask="url(#r)"/></g><g transform="translate(228)"><mask id="t" fill="#fff"><use xlink:href="#s"/></mask><path d="M186.41 349.683l42.544-262.856L355.53 29.094a5 5 0 0 1 2.087-.46c2.646 0 5.025 2.131 5.025 5.032v232.402a5.026 5.026 0 0 1-2.94 4.573L186.41 349.683" fill="#404954" fill-rule="nonzero" mask="url(#t)"/></g><g transform="translate(228)"><mask id="v" fill="#fff"><use xlink:href="#u"/></mask><path d="M9.764 197.148l.239 35.47.128 36.357.053 41.677-.055 41.678-.13 36.357-.235 35.47a.361.361 0 0 1-.722 0l-.235-35.47-.129-36.357-.056-41.678.053-41.677.128-36.357.239-35.47a.362.362 0 0 1 .722 0" fill="#FFFFFE" fill-rule="nonzero" mask="url(#v)"/></g><g transform="translate(228)"><mask id="x" fill="#fff"><use xlink:href="#w"/></mask><path d="M323.313 24.328l-45.182 21.074-46.36 21.495-53.184 24.555-53.23 24.457-46.468 21.261-45.38 20.643a.36.36 0 0 1-.302-.656l45.184-21.07 46.359-21.496 53.183-24.557 53.229-24.459 46.467-21.263 45.382-20.64a.362.362 0 0 1 .302.656" fill="#FFFFFE" fill-rule="nonzero" mask="url(#x)"/></g><g transform="translate(228)"><mask id="z" fill="#fff"><use xlink:href="#y"/></mask><g mask="url(#z)"><path d="M28.09 186.427c0-3.313 2.68-7.226 5.993-8.744L355.185 30.537c3.31-1.517 5.994-.06 5.994 3.25v218.289c0 3.312-2.682 7.225-5.994 8.743L34.083 407.965c-3.31 1.517-5.994.061-5.994-3.25V186.427z" fill="#000" fill-rule="nonzero"/><path d="M28.09 186.427c0-3.313 2.68-7.226 5.993-8.744L355.185 30.537c3.31-1.517 5.994-.06 5.994 3.25v218.289c0 3.312-2.682 7.225-5.994 8.743L34.083 407.965c-3.31 1.517-5.994.061-5.994-3.25V186.427z" fill="#FFF"/><path d="M.59 157.427c0-3.515 2.8-7.602 6.285-9.199L327.976 1.082c3.625-1.66 6.703.009 6.703 3.705v218.289c0 3.514-2.801 7.601-6.286 9.198L7.292 379.42c-3.625 1.66-6.703-.008-6.703-3.705V157.427z" stroke="url(#A)" transform="translate(27 29)"/></g></g><g transform="translate(228)"><mask id="C" fill="#fff"><use xlink:href="#B"/></mask><g mask="url(#C)"><path fill="#B3B3B3" fill-rule="nonzero" d="M28.09 191.679L361.178 37.064v9.673L28.089 201.352z"/><path fill="url(#D)" d="M.09 154.679L333.178.064v9.673L.089 164.352z" transform="translate(28 37)"/><path fill="#BCBCBC" fill-rule="nonzero" d="M28.09 191.679L361.178 37.064v9.673L28.089 201.352z"/></g></g><g transform="translate(228)"><mask id="F" fill="#fff"><use xlink:href="#E"/></mask><g mask="url(#F)"><path d="M32.381 194.313c.146.056.156.298.022.542-.133.243-.36.395-.505.34l-1.43-.55c-.154-.059-.154-.327 0-.58l1.43-2.336c.146-.237.372-.368.505-.29.134.076.124.33-.022.569l-.752 1.229 2.06-1.287c.197-.124.357-.047.357.17 0 .217-.16.493-.358.617l-2.06 1.287.753.289z" fill="#000" fill-rule="nonzero"/><path d="M2.381 3.313c.146.056.156.298.022.542-.133.243-.36.395-.505.34l-1.43-.55c-.154-.059-.154-.327 0-.58L1.899.73c.146-.237.372-.368.505-.29.134.076.124.33-.022.569L1.63 2.237 3.689.95c.197-.124.357-.047.357.17 0 .217-.16.493-.358.617l-2.06 1.287.753.289z" fill="url(#G)" transform="translate(30 191)"/><path d="M32.381 194.313c.146.056.156.298.022.542-.133.243-.36.395-.505.34l-1.43-.55c-.154-.059-.154-.327 0-.58l1.43-2.336c.146-.237.372-.368.505-.29.134.076.124.33-.022.569l-.752 1.229 2.06-1.287c.197-.124.357-.047.357.17 0 .217-.16.493-.358.617l-2.06 1.287.753.289z" fill="#000" fill-rule="nonzero"/></g></g><g transform="translate(228)"><mask id="I" fill="#fff"><use xlink:href="#H"/></mask><g mask="url(#I)"><path d="M37.927 189.292c-.146-.056-.155-.3-.022-.543.133-.243.36-.395.505-.34l1.43.55c.154.059.154.327 0 .58l-1.43 2.336c-.146.237-.372.368-.505.291-.133-.077-.124-.332.022-.57l.752-1.229-2.06 1.287c-.197.124-.357.048-.357-.17 0-.217.16-.493.358-.616l2.06-1.288-.753-.288z" fill="#000" fill-rule="nonzero"/><path d="M1.927 1.292c-.146-.056-.155-.3-.022-.543.133-.243.36-.395.505-.34l1.43.55c.154.059.154.327 0 .58L2.41 3.875c-.146.237-.372.368-.505.291-.133-.077-.124-.332.022-.57l.752-1.229L.62 3.654c-.197.124-.357.048-.357-.17 0-.217.16-.493.358-.616L2.68 1.58l-.753-.288z" fill="url(#J)" transform="translate(36 188)"/><path d="M37.927 189.292c-.146-.056-.155-.3-.022-.543.133-.243.36-.395.505-.34l1.43.55c.154.059.154.327 0 .58l-1.43 2.336c-.146.237-.372.368-.505.291-.133-.077-.124-.332.022-.57l.752-1.229-2.06 1.287c-.197.124-.357.048-.357-.17 0-.217.16-.493.358-.616l2.06-1.288-.753-.288z" fill="#000" fill-rule="nonzero"/></g></g><g transform="translate(228)"><mask id="L" fill="#fff"><use xlink:href="#K"/></mask><g mask="url(#L)"><path d="M44.77 186.609l1.674-.703-.134-1.607-.487.73c-.31-.114-.696-.072-1.102.132-.987.493-1.787 1.774-1.787 2.86 0 1.087.8 1.567 1.787 1.074.48-.24.93-.676 1.263-1.208.14-.224.14-.473 0-.557-.14-.083-.366.03-.505.253-.2.32-.47.58-.758.725-.592.296-1.072.008-1.072-.644s.48-1.42 1.072-1.717c.202-.1.394-.135.56-.106l-.511.768z" fill="#000" fill-rule="nonzero"/><path d="M2.77 2.609l1.674-.703L4.31.299l-.487.73c-.31-.114-.696-.072-1.102.132C1.734 1.654.934 2.935.934 4.02c0 1.087.8 1.567 1.787 1.074.48-.24.93-.676 1.263-1.208.14-.224.14-.473 0-.557-.14-.083-.366.03-.505.253-.2.32-.47.58-.758.725-.592.296-1.072.008-1.072-.644s.48-1.42 1.072-1.717c.202-.1.394-.135.56-.106l-.511.768z" fill="url(#G)" transform="translate(42 184)"/><path d="M44.77 186.609l1.674-.703-.134-1.607-.487.73c-.31-.114-.696-.072-1.102.132-.987.493-1.787 1.774-1.787 2.86 0 1.087.8 1.567 1.787 1.074.48-.24.93-.676 1.263-1.208.14-.224.14-.473 0-.557-.14-.083-.366.03-.505.253-.2.32-.47.58-.758.725-.592.296-1.072.008-1.072-.644s.48-1.42 1.072-1.717c.202-.1.394-.135.56-.106l-.511.768z" fill="#000" fill-rule="nonzero"/></g></g><g transform="translate(228)"><mask id="N" fill="#fff"><use xlink:href="#M"/></mask><g mask="url(#N)"><path d="M50.01 183.579c0-1.636 1.35-3.583 2.997-4.34L349.846 42.693c1.655-.761 2.997-.048 2.997 1.583v1.06c0 1.636-1.35 3.583-2.997 4.34L53.006 186.223c-1.655.761-2.997.049-2.997-1.583v-1.06z" fill="#FFF"/><path d="M50.01 183.579c0-1.636 1.35-3.583 2.997-4.34L349.846 42.693c1.655-.761 2.997-.048 2.997 1.583v1.06c0 1.636-1.35 3.583-2.997 4.34L53.006 186.223c-1.655.761-2.997.049-2.997-1.583v-1.06z" fill="#FFF" fill-rule="nonzero"/><path d="M1.51 142.579v1.06c0 1.245.946 1.746 2.288 1.129L300.637 8.222c1.478-.68 2.706-2.455 2.706-3.886v-1.06c0-1.245-.947-1.746-2.288-1.128L4.215 138.693c-1.478.68-2.706 2.456-2.706 3.886z" stroke="url(#O)" transform="translate(49 41)"/><path d="M.51 142.579c0-1.835 1.466-3.957 3.288-4.795L300.637 1.24c1.966-.905 3.706.016 3.706 2.037v1.06c0 1.836-1.467 3.957-3.288 4.795L4.215 145.676C2.25 146.581.51 145.66.51 143.64v-1.06z" stroke="url(#P)" transform="translate(49 41)"/></g></g><g transform="translate(228)"><mask id="R" fill="#fff"><use xlink:href="#Q"/></mask><g mask="url(#R)"><path d="M357.966 45.207h-2.383c-.197 0-.357-.176-.357-.393 0-.217.16-.394.357-.394h2.383c.197 0 .357.177.357.394 0 .217-.16.393-.357.393zm0-2.623h-2.383c-.197 0-.357-.176-.357-.393 0-.217.16-.393.357-.393h2.383c.197 0 .357.176.357.393 0 .217-.16.393-.357.393zm0 1.312h-2.383c-.197 0-.357-.176-.357-.394 0-.217.16-.393.357-.393h2.383c.197 0 .357.176.357.393 0 .218-.16.394-.357.394z" fill="#000" fill-rule="nonzero"/><path d="M2.966 4.207H.583c-.197 0-.357-.176-.357-.393 0-.217.16-.394.357-.394h2.383c.197 0 .357.177.357.394 0 .217-.16.393-.357.393zm0-2.623H.583c-.197 0-.357-.176-.357-.393 0-.217.16-.393.357-.393h2.383c.197 0 .357.176.357.393 0 .217-.16.393-.357.393zm0 1.312H.583c-.197 0-.357-.176-.357-.394 0-.217.16-.393.357-.393h2.383c.197 0 .357.176.357.393 0 .218-.16.394-.357.394z" fill="url(#S)" transform="translate(355 41)"/><path d="M357.966 45.207h-2.383c-.197 0-.357-.176-.357-.393 0-.217.16-.394.357-.394h2.383c.197 0 .357.177.357.394 0 .217-.16.393-.357.393zm0-2.623h-2.383c-.197 0-.357-.176-.357-.393 0-.217.16-.393.357-.393h2.383c.197 0 .357.176.357.393 0 .217-.16.393-.357.393zm0 1.312h-2.383c-.197 0-.357-.176-.357-.394 0-.217.16-.393.357-.393h2.383c.197 0 .357.176.357.393 0 .218-.16.394-.357.394z" fill="#000" fill-rule="nonzero"/></g></g><g transform="translate(228)"><mask id="U" fill="#fff"><use xlink:href="#T"/></mask><g mask="url(#U)"><path fill="url(#V)" d="M.369 153.3L334.179.042v9.442L.369 162.742z" transform="translate(27 28)"/><path fill="#CBCBCB" fill-rule="nonzero" d="M27.369 181.3l333.81-153.258v9.442L27.369 190.742z"/></g></g><g transform="translate(228)"><mask id="X" fill="#fff"><use xlink:href="#W"/></mask><ellipse stroke="#D4534C" fill="#EE5C55" fill-rule="nonzero" mask="url(#X)" cx="32.41" cy="183.45" rx="1.44" ry="1.57"/></g><g transform="translate(228)"><mask id="Z" fill="#fff"><use xlink:href="#Y"/></mask><ellipse stroke="#DEA92C" fill="#F8BC32" fill-rule="nonzero" mask="url(#Z)" cx="38.21" cy="180.45" rx="1.44" ry="1.57"/></g><g transform="translate(228)"><mask id="ab" fill="#fff"><use xlink:href="#aa"/></mask><ellipse stroke="#57B33B" fill="#62CB43" fill-rule="nonzero" mask="url(#ab)" cx="44.02" cy="177.45" rx="1.44" ry="1.57"/></g><g transform="translate(228)"><mask id="ad" fill="#fff"><use xlink:href="#ac"/></mask><g mask="url(#ad)"><path d="M51.981 171.856c-.528.236-1.097.934-1.268 1.559l-1.4 5.134s-.097.308-.215.63c-.118.32-.478.471-.478.471l24.728-11.034 24.727-11.033s-.36.17-.478-.046a6.4 6.4 0 0 1-.215-.437l-1.4-3.885c-.17-.472-.74-.663-1.268-.427l-21.366 9.534-21.367 9.534z" fill="#000" fill-rule="nonzero"/><path d="M3.981 19.856c-.528.236-1.097.934-1.268 1.559l-1.4 5.134s-.097.308-.215.63c-.118.32-.478.471-.478.471l24.728-11.034L50.075 5.583s-.36.17-.478-.046a6.4 6.4 0 0 1-.215-.437l-1.4-3.885c-.17-.472-.74-.663-1.268-.427l-21.366 9.534L3.98 19.856z" fill="url(#ae)" transform="translate(48 152)"/><path d="M51.981 171.856c-.528.236-1.097.934-1.268 1.559l-1.4 5.134s-.097.308-.215.63c-.118.32-.478.471-.478.471l24.728-11.034 24.727-11.033s-.36.17-.478-.046a6.4 6.4 0 0 1-.215-.437l-1.4-3.885c-.17-.472-.74-.663-1.268-.427l-21.366 9.534-21.367 9.534z" fill="#FDFDFD" fill-rule="nonzero"/></g></g><g fill-rule="nonzero"><path d="M283.783 182.826v-2.954l.368-.172v1.304c.195-.375.433-.629.715-.76.175-.082.316-.092.42-.03.105.063.158.189.158.377v1.46l-.369.171v-1.34c0-.15-.022-.247-.066-.29-.045-.044-.118-.042-.22.006-.226.105-.438.352-.638.74v1.316l-.368.172zm2.823-1.272c-.188.088-.333.102-.438.044-.105-.058-.157-.183-.157-.374v-1.193l-.255.119v-.277l.255-.119v-.368l.368-.208v.404l.531-.248v.277l-.53.248v1.126c0 .265.114.345.343.238.049-.023.108-.059.178-.108v.255a1.79 1.79 0 0 1-.295.184zm1.268-.592c-.187.088-.333.102-.438.044-.104-.059-.157-.183-.157-.374v-1.193l-.254.118v-.276l.254-.12v-.368l.369-.207v.404l.531-.248v.277l-.531.248v1.126c0 .265.115.344.344.237.049-.022.108-.058.178-.107v.254a1.79 1.79 0 0 1-.296.185zm.659.385v-2.77l.368-.173v.382c.151-.355.378-.603.68-.743.244-.115.436-.115.576-.002.14.113.21.324.21.633 0 .336-.079.645-.238.926a1.4 1.4 0 0 1-.627.602c-.24.113-.44.114-.6.004v.969l-.369.172zm.368-1.396c.19.081.37.082.543.002.354-.166.531-.518.531-1.058 0-.477-.157-.642-.471-.495-.206.096-.407.302-.603.616v.935zm2.418-.597a2.166 2.166 0 0 1-.614.169v-.339c.24.008.45-.03.629-.114a.707.707 0 0 0 .263-.209.433.433 0 0 0 .105-.264c0-.126-.098-.184-.294-.175l-.215.009c-.318.016-.477-.1-.477-.348 0-.177.063-.346.188-.506a1.38 1.38 0 0 1 .516-.393c.113-.053.253-.103.42-.15l.077-.02v.306c-.206.035-.369.08-.49.137-.237.111-.355.252-.355.424 0 .111.09.163.269.155l.178-.008c.2-.009.343.014.426.07.084.055.125.153.125.293 0 .179-.07.358-.21.539-.142.18-.322.322-.541.424zm1.302-.655v-.368l.368-.172v.368l-.368.172zm0-1.66v-.37l.368-.173v.37l-.368.172zm.988 1.753l.997-3.788.29-.135-.997 3.787-.29.136zm1.352-.631l.997-3.788.29-.135-.997 3.787-.29.136zm2.736-2.09c-.221.307-.434.508-.638.603-.169.079-.308.091-.42.038-.11-.054-.166-.16-.166-.322 0-.222.093-.436.28-.642.186-.206.453-.39.801-.553l.088-.04v-.246c0-.235-.12-.297-.363-.184-.194.09-.404.249-.63.474v-.305c.248-.217.48-.376.698-.477.227-.106.394-.133.502-.081.108.052.162.185.162.401v.92c0 .211.065.286.194.226a.732.732 0 0 0 .071-.04l.027.19a1.045 1.045 0 0 1-.277.19c-.172.08-.282.03-.33-.151zm-.055-.174v-.526l-.123.054a1.55 1.55 0 0 0-.49.344c-.125.135-.187.265-.187.39 0 .088.03.148.093.18s.139.027.228-.015c.154-.071.313-.214.48-.427zm.958.01v-2.953l.369-.172v2.954l-.369.172zm2.432-1.2c-.246.19-.458.326-.634.408-.299.14-.543.154-.732.044-.189-.111-.283-.325-.283-.641 0-.308.083-.6.25-.875.166-.274.379-.472.638-.593.246-.115.436-.116.57-.004.134.112.2.329.2.65l-.001.115-1.281.598c.053.458.29.589.709.393.153-.071.341-.2.564-.387v.292zm-1.256-.582l.895-.419c0-.377-.14-.5-.422-.369-.283.132-.441.395-.473.788zm1.534.518l.772-1.41-.75-.632.438-.204.593.505.537-1.033.359-.167-.704 1.359.766.643-.438.205-.612-.52-.59 1.081-.371.173zm2.389-.377v-2.77l.368-.172v.382c.151-.355.377-.603.68-.744.244-.114.436-.114.576-.002.14.113.21.324.21.634 0 .336-.079.645-.238.925a1.4 1.4 0 0 1-.627.603c-.241.112-.441.114-.6.004v.968l-.37.172zm.368-1.395c.19.081.37.082.543.001.354-.165.53-.518.53-1.058 0-.476-.156-.64-.47-.494-.206.096-.407.301-.603.616v.935zm1.879-.392v-2.954l.368-.172v2.954l-.368.172zm2.213-1.034v-.381c-.196.377-.433.63-.713.76-.177.084-.318.094-.423.03-.104-.062-.157-.188-.157-.378v-1.459l.369-.172v1.34c0 .152.022.25.066.293.045.044.118.041.222-.007.224-.105.436-.351.636-.74v-1.317l.368-.172v2.031l-.368.172zm.943-.44v-2.031l.368-.172v.381c.18-.368.41-.618.693-.75.271-.126.457-.07.555.168.175-.367.402-.616.681-.746.18-.084.319-.096.417-.037.099.06.148.184.148.373v1.478l-.37.173v-1.42c0-.232-.092-.305-.275-.22-.191.09-.391.318-.6.687v1.362l-.371.172v-1.42c0-.232-.094-.305-.28-.218-.187.087-.386.316-.598.686v1.362l-.368.172zm3.412-1.593v-2.031l.369-.172v.381c.18-.368.41-.618.692-.75.272-.126.457-.07.555.168.175-.367.402-.616.681-.746.18-.084.319-.096.417-.037.099.06.148.184.148.373v1.478l-.37.173v-1.42c0-.232-.092-.305-.275-.22-.191.09-.391.318-.6.687v1.362l-.371.173v-1.42c0-.233-.094-.306-.28-.219-.186.087-.385.316-.597.686v1.362l-.369.172zm4.901-2.353c-.247.19-.458.326-.634.408-.3.14-.543.154-.732.043-.189-.11-.283-.324-.283-.64 0-.309.083-.6.25-.875.166-.275.379-.473.638-.594.246-.114.436-.116.57-.004.134.112.2.33.2.65l-.001.116-1.282.598c.054.458.29.588.71.393.153-.072.341-.2.564-.387v.292zm-1.257-.583l.896-.418c0-.378-.14-.501-.422-.37-.284.133-.441.395-.474.788zm1.738.423v-2.031l.369-.172v.382c.146-.353.358-.594.636-.724a.962.962 0 0 1 .118-.045v.344a.577.577 0 0 0-.169.046c-.233.11-.428.339-.585.69v1.338l-.369.172zm1.41-.657v-.462l.461-.216v.462l-.462.216zm1.835-.81c-.275.128-.502.132-.683.013-.18-.118-.271-.333-.271-.642 0-.33.09-.63.268-.898.18-.268.429-.477.75-.626.158-.074.335-.135.53-.183v.309a2.049 2.049 0 0 0-.508.146c-.189.088-.34.23-.454.424-.114.195-.171.41-.171.646 0 .228.059.385.176.471.117.086.27.085.46-.003.168-.079.342-.203.52-.372v.318a3.466 3.466 0 0 1-.617.397zm1.8-.84c-.291.135-.523.147-.696.035-.174-.112-.26-.329-.26-.652a1.653 1.653 0 0 1 .969-1.513c.298-.139.534-.154.708-.045.174.109.26.325.26.65 0 .331-.087.633-.261.904a1.682 1.682 0 0 1-.72.62zm.005-.28c.39-.182.586-.537.586-1.063 0-.52-.193-.69-.578-.51-.384.18-.576.53-.576 1.053 0 .523.19.697.568.52zm1.388-.418v-2.032l.369-.172v.382c.18-.368.41-.618.692-.75.272-.127.457-.07.556.167.174-.367.401-.615.68-.746.18-.084.319-.096.418-.036.098.059.147.183.147.373v1.478l-.37.173v-1.42c0-.232-.092-.305-.275-.22-.19.09-.39.318-.6.687v1.361l-.37.173v-1.42c0-.233-.094-.306-.281-.218-.186.086-.385.315-.597.686v1.362l-.369.172z" fill="#181818"/><path d="M283.373 174.312l-.408-.843-.41 1.224.818-.381zm.36.748l-.261-.542-1.015.474-.264.787-.316.148.95-2.84.337-.158.936 1.96-.367.171zm.724-.338v-2.557l.319-.148v2.556l-.32.15zm2.247-1.106a3.102 3.102 0 0 1-.549.354c-.259.12-.47.133-.634.037-.163-.095-.245-.28-.245-.555 0-.266.072-.518.216-.756.144-.238.329-.41.553-.514.213-.1.377-.1.493-.004.116.097.174.285.174.563l-.001.1-1.11.518c.047.396.251.51.614.34.133-.062.296-.174.49-.335v.252zm-1.088-.504l.776-.362c0-.327-.122-.434-.366-.32-.245.115-.382.342-.41.682zm1.47.383l.67-1.221-.65-.547.379-.177.513.437.465-.894.31-.145-.608 1.177.662.557-.379.177-.53-.45-.511.936-.32.15zm3.25-1.518v-2.396l.653-.305c.29-.135.497-.183.623-.144.127.038.19.17.19.393 0 .255-.087.495-.26.72-.172.225-.412.41-.718.553l-.15.07v.952l-.338.157zm.337-1.367l.138-.064c.202-.094.358-.213.468-.358a.76.76 0 0 0 .165-.47c0-.144-.043-.226-.13-.247-.086-.022-.23.015-.432.11l-.209.097v.932zm1.506.507v-2.557l.32-.149v2.557l-.32.15zm2.058-.96v-.331c-.17.326-.375.546-.617.659-.153.071-.275.08-.366.026-.09-.055-.136-.164-.136-.328v-1.263l.32-.149v1.16c0 .131.018.216.057.254.038.037.102.035.192-.007.194-.09.377-.304.55-.64v-1.14l.32-.15v1.76l-.32.148zm.959-.448v-1.759l.319-.149v.33c.155-.318.355-.535.599-.648.235-.11.396-.062.48.144.152-.318.349-.533.59-.646.156-.072.276-.083.361-.032.086.052.128.16.128.324v1.279l-.32.15v-1.23c0-.2-.08-.264-.238-.19-.165.078-.339.276-.52.595v1.178l-.32.15v-1.229c0-.202-.082-.265-.244-.19-.16.076-.333.274-.516.595v1.179l-.32.149zm3.096-1.446v-1.758l.319-.15v.331c.155-.319.355-.535.6-.649.234-.11.395-.062.48.145.151-.318.348-.533.59-.646.155-.073.275-.083.36-.032.086.051.129.16.129.323v1.28l-.321.15v-1.23c0-.2-.08-.264-.238-.19-.165.077-.339.275-.52.594v1.179l-.32.15v-1.23c0-.201-.082-.264-.243-.189-.161.075-.334.273-.517.594v1.18l-.319.148zm4.385-2.104a3.102 3.102 0 0 1-.549.354c-.259.12-.47.133-.634.037-.163-.095-.245-.28-.245-.555 0-.266.072-.518.216-.756.144-.238.328-.41.553-.514.213-.1.377-.1.493-.004.116.097.174.285.174.563l-.001.1-1.11.518c.047.396.251.51.614.34.133-.062.296-.174.49-.335v.252zm-1.088-.504l.776-.362c0-.327-.122-.434-.366-.32-.245.115-.382.342-.41.682zm1.647.3v-1.758l.319-.15v.331c.126-.305.31-.514.55-.626a.833.833 0 0 1 .102-.04v.298a.5.5 0 0 0-.145.04c-.202.095-.371.294-.507.597v1.16l-.32.148zm2.327-1.925v-.24l1.438-.67v.239l-1.438.671zm3.037-.58v-2.396l.653-.305c.29-.135.497-.183.624-.144.126.039.189.17.189.393 0 .255-.086.495-.26.72-.172.226-.412.41-.718.553l-.15.07v.952l-.338.158zm.337-1.366l.138-.065c.202-.094.358-.213.468-.357a.76.76 0 0 0 .165-.47c0-.144-.043-.227-.13-.248-.086-.021-.23.015-.432.11l-.209.097v.933zm2.194.225c-.251.118-.452.128-.602.032-.15-.097-.225-.285-.225-.565a1.431 1.431 0 0 1 .839-1.31c.258-.12.462-.133.613-.039.15.094.226.282.226.563 0 .287-.076.548-.227.782a1.456 1.456 0 0 1-.624.537zm.005-.241c.338-.158.507-.465.507-.92 0-.45-.167-.598-.5-.442-.333.155-.499.459-.499.911 0 .454.164.604.492.45zm1.344-.429v-1.758l.32-.15v.331c.126-.305.31-.514.55-.626a.833.833 0 0 1 .102-.04v.298a.5.5 0 0 0-.146.04c-.202.095-.37.294-.507.597v1.16l-.319.148zm1.885-.84c-.162.076-.288.089-.379.038-.09-.05-.136-.158-.136-.323v-1.033l-.22.103v-.24l.22-.103v-.319l.32-.18v.35l.46-.214v.24l-.46.214v.975c0 .23.099.298.297.206.042-.02.094-.051.154-.093v.22a1.55 1.55 0 0 1-.256.16zm1.093-2.069v1.519l-.32.15v-1.52l-.25.117v-.24l.25-.116v-.21c0-.42.19-.718.573-.896.107-.05.228-.09.364-.117v.253a1.321 1.321 0 0 0-.345.094.456.456 0 0 0-.214.176.64.64 0 0 0-.058.306v.244l.44-.204v.24l-.44.204zm1.527.847c-.251.117-.452.127-.602.03-.15-.096-.225-.284-.225-.564a1.431 1.431 0 0 1 .839-1.31c.258-.12.462-.133.613-.039.15.095.225.282.225.563 0 .287-.075.548-.226.782a1.456 1.456 0 0 1-.624.538zm.005-.242c.338-.158.507-.465.507-.92 0-.45-.167-.598-.5-.442-.333.155-.5.46-.5.911 0 .454.165.604.493.45zm1.344-.429v-2.556l.32-.15v2.557l-.32.15zm.959-.447V156.7l.319-.149v1.759l-.32.149zm0-2.078v-.319l.319-.149v.32l-.32.148zm1.647 1.35c-.252.117-.453.127-.603.03-.15-.096-.225-.284-.225-.564a1.431 1.431 0 0 1 .839-1.31c.258-.12.462-.133.613-.039.15.094.226.282.226.563 0 .287-.076.548-.227.782a1.456 1.456 0 0 1-.623.538zm.004-.242c.338-.158.507-.465.507-.92 0-.45-.166-.598-.5-.442-.333.155-.499.459-.499.911 0 .454.164.604.492.45z" fill="#000"/></g></g></svg>