<svg viewBox="0 0 51 50" xmlns="http://www.w3.org/2000/svg"><g fill-rule="nonzero" fill="#CE0176"><path d="M29.598 25.994h1.93V37.77h-18.79V25.994h1.928v9.869h14.93c.002-3.293.002-6.577.002-9.87zm-5.495-13.18l6.412 9.356c.676-.46 1.34-.91 2.009-1.363-2.144-3.126-4.277-6.238-6.412-9.355-.673.455-1.335.905-2.009 1.363zm6.018 9.686l-9.8-5.752-1.237 2.083 9.802 5.753c.415-.701.825-1.39 1.235-2.084zm3.285-13.41c-.802.14-1.589.277-2.395.415.65 3.725 1.3 7.435 1.947 11.155l2.396-.414c-.65-3.729-1.298-7.44-1.948-11.155zm-4.72 16.178c-3.67-.984-7.324-1.96-10.99-2.941l-.631 2.336 10.99 2.94c.213-.785.421-1.557.63-2.335zm-1.031 6.263h-11.36v2.405h11.36v-2.405zm.284-3.109c-3.783-.346-7.552-.694-11.33-1.038l-.226 2.41c3.783.345 7.554.691 11.332 1.037l.224-2.409z"/><path d="M25.2 0C11.392 0 .2 11.192.2 25s11.192 25 25 25 25-11.192 25-25-11.192-25-25-25zm0 46.094C13.55 46.094 4.106 36.65 4.106 25S13.55 3.906 25.2 3.906 46.294 13.35 46.294 25 36.85 46.094 25.2 46.094z"/></g></svg>