<svg xmlns="http://www.w3.org/2000/svg" viewBox="0 0 37 37"><path d="M36.6 29L26 18.4l7.2-7.2c1.1-1.1 1.6-2.4 1.6-3.9 0-1.4-.5-2.8-1.6-3.8-1-1-2.3-1.6-3.8-1.6-1.4 0-2.8.6-3.8 1.6L24 5l-5.6 5.7L8 .3c-.5-.4-1.1-.4-1.6 0L.3 6.4c-.2.2-.3.5-.3.8 0 .3.1.6.3.8l10.4 10.4-6 6-.1.1v.1h-.1v.2h-.1v.1l-2.3 8.4c-.1.4 0 .8.3 1.1.2.2.5.3.8.3 0 0 .1 0 .2-.1l8.5-2.3h.2v-.1h.1l.1-.1 6.1-6.1L29 36.6c.2.2.4.3.7.3.3 0 .6-.1.8-.3l6.1-6.1c.4-.4.4-1.1 0-1.5zM27.1 5c.6-.6 1.4-.9 2.3-.9.9 0 1.7.3 2.3.9.6.7 1 1.5 1 2.3 0 .9-.4 1.7-1 2.3l-.8.8-4.6-4.6.8-.8zM2.6 7.2l4.6-4.6 2 2-2.3 2.2c-.4.5-.4 1.1 0 1.6.2.2.5.3.8.3.3 0 .5-.1.7-.3l2.3-2.3 1.7 1.7L11.2 9c-.4.4-.4 1.1 0 1.5.2.2.5.4.8.4.3 0 .6-.2.8-.4l1.1-1.1 2.9 2.8-4.6 4.6-9.6-9.6zm22.2.1l1.5 1.6L8.5 26.7 7 25.2 24.8 7.3zM4.7 32L6 27.3l3.5 3.4L4.7 32zm6.9-2.2L10 28.2l17.9-17.8 1.5 1.5-5.7 5.7-12.1 12.2zm18.1 4.5l-9.8-9.8 4.6-4.6 3.1 3.1-1.2 1.2c-.4.4-.4 1.1 0 1.5.2.2.5.3.8.3.2 0 .5-.1.7-.3l1.2-1.2 1.7 1.7-2.2 2.3c-.5.4-.5 1.1 0 1.5.2.2.4.3.7.3.3 0 .6-.1.8-.3l2.3-2.2 1.9 1.9-4.6 4.6z" fill="#CE0176"/></svg>