<?xml version="1.0" encoding="UTF-8"?>
<svg width="76px" height="76px" viewBox="0 0 76 76" version="1.1" xmlns="http://www.w3.org/2000/svg" xmlns:xlink="http://www.w3.org/1999/xlink">
    <!-- Generator: Sketch 42 (36781) - http://www.bohemiancoding.com/sketch -->
    <title>lines-and-angles_stomp</title>
    <desc>Created with Sketch.</desc>
    <defs></defs>
    <g id="Welcome" stroke="none" stroke-width="1" fill="none" fill-rule="evenodd">
        <g id="Desktop-HD" transform="translate(-772.000000, -4426.000000)" fill-rule="nonzero" fill="#272729">
            <g id="lines-and-angles_stomp" transform="translate(772.000000, 4426.000000)">
                <g id="DESIGNS">
                    <path d="M41.1666667,0 L34.8333333,38 L15.6021667,41.496 C6.56766667,43.1395 0,51.0086667 0,60.1888333 L0,76 L44.3333333,76 L50.6666667,69.6666667 L50.6666667,76 L76,76 L76,0 L41.1666667,0 Z M41.7113333,69.6666667 L6.33333333,69.6666667 L6.33333333,66.5 L44.878,66.5 L41.7113333,69.6666667 Z M69.6666667,69.6666667 L57,69.6666667 L57,66.5 L69.6666667,66.5 L69.6666667,69.6666667 Z M69.6666667,60.1666667 L6.3365,60.1666667 C6.34916667,54.0518333 10.716,48.8236667 16.7358333,47.728 L35.4033333,44.3333333 L53.8333333,44.3333333 L53.8333333,38 L41.2553333,38 L42.3098333,31.6666667 L53.8333333,31.6666667 L53.8333333,25.3333333 L43.3643333,25.3333333 L44.4188333,19 L53.8333333,19 L53.8333333,12.6666667 L45.4765,12.6666667 L46.531,6.33333333 L69.6666667,6.33333333 L69.6666667,60.1666667 Z" id="Shape"></path>
                </g>
            </g>
        </g>
    </g>
</svg>