<svg viewBox="0 0 103 45" xmlns="http://www.w3.org/2000/svg"><path d="M103 7.948h-9.333C89.625 3.456 83.78.614 77.25.614c-7.184 0-13.552 3.44-17.58 8.738a26.55 26.55 0 0 0-16.34 0C39.298 4.054 32.934.614 25.75.614c-6.53 0-12.378 2.842-16.417 7.334H0v7.333h4.962a21.829 21.829 0 0 0-1.283 7.333c0 12.152 9.88 22 22.071 22 12.19 0 22.071-9.848 22.071-22 0-2.332-.371-4.58-1.044-6.688a19.076 19.076 0 0 1 9.446.004 21.935 21.935 0 0 0-1.044 6.684c0 12.152 9.88 22 22.071 22 12.19 0 22.071-9.848 22.071-22 0-2.574-.467-5.038-1.283-7.333H103V7.948zM25.75 37.28c-8.115 0-14.714-6.578-14.714-14.667 0-8.088 6.6-14.666 14.714-14.666 8.115 0 14.714 6.578 14.714 14.666 0 8.089-6.6 14.667-14.714 14.667zm51.5 0c-8.115 0-14.714-6.578-14.714-14.667 0-8.088 6.6-14.666 14.714-14.666 8.115 0 14.714 6.578 14.714 14.666 0 8.089-6.6 14.667-14.714 14.667z" fill-rule="nonzero" fill="#272729"/></svg>