<svg viewBox="0 0 72 44" xmlns="http://www.w3.org/2000/svg"><g fill-rule="nonzero" fill="#000"><path d="M69.982 0H1.49C.666 0 0 .655 0 1.464V42.46c0 .807.666 1.463 1.489 1.463h68.493c.82 0 1.488-.656 1.488-1.463V1.464C71.47.655 70.802 0 69.982 0zM68.49 40.993H2.978V2.93H68.49v38.064z"/><path d="M20.704 7.809l-5.202 8.95-2.74-4.488-6.807 11.154H29.78L20.704 7.81zM13.33 20.498h-2.115l1.548-2.536 1.044 1.713-.477.823zm3.43 0l3.944-6.787 3.943 6.787H16.76zM64.024 35.138H40.202c-.823 0-1.488.657-1.488 1.463 0 .81.665 1.467 1.488 1.467h23.822c.824 0 1.492-.656 1.492-1.467 0-.806-.668-1.463-1.492-1.463zM64.024 29.284h-11.91c-.823 0-1.491.654-1.491 1.462 0 .809.668 1.463 1.492 1.463h11.909c.824 0 1.492-.654 1.492-1.463 0-.808-.668-1.462-1.492-1.462z"/></g></svg>