<svg width="26" height="21" viewBox="0 0 26 21" xmlns="http://www.w3.org/2000/svg"><path d="M6.765 8.44l.538.391.54.391 2.633-3.888 6.347 7.585.995-.893-.11-.133 2.945-4.809 4.164 4.976.995-.893-5.174-6.183-.995.893.11.132-2.945 4.81-6.32-7.553-.996.893.095.114L7.638 7.15 1.831.209l-.995.893L6.859 8.3l-.094.139zm3.711 4.395l6.347 7.585.995-.893-.11-.133 2.945-4.81 4.164 4.977.995-.893-5.174-6.183-.995.893.11.132-2.946 4.809-6.32-7.552-.995.893.095.113-1.95 2.877-5.806-6.94-.995.893L6.859 15.8l-.094.14.539.392.54.391 2.632-3.889z" fill="#272729" fill-rule="evenodd"/></svg>