<svg viewBox="0 0 51 50" xmlns="http://www.w3.org/2000/svg"><path d="M25.4 0C11.593 0 .4 11.193.4 25s11.193 25 25 25 25-11.193 25-25-11.193-25-25-25zm14.846 39.846a20.932 20.932 0 0 1-8.609 5.21v-3.747c0-1.97-.675-3.418-2.026-4.346a21.876 21.876 0 0 0 2.332-.342 17.597 17.597 0 0 0 2.246-.635c.79-.276 1.497-.606 2.124-.988a8.857 8.857 0 0 0 1.806-1.49 8.712 8.712 0 0 0 1.453-2.075c.39-.773.7-1.7.928-2.783.228-1.082.342-2.275.342-3.577 0-2.523-.822-4.67-2.466-6.445.749-1.953.667-4.077-.244-6.372l-.61-.073c-.424-.05-1.185.13-2.283.537-1.1.407-2.332 1.074-3.7 2.002a22.46 22.46 0 0 0-6.03-.806c-2.099 0-4.1.269-6.005.806a20.91 20.91 0 0 0-2.454-1.453c-.773-.382-1.391-.643-1.855-.781a6.363 6.363 0 0 0-1.294-.257c-.399-.032-.655-.04-.77-.024a1.56 1.56 0 0 0-.243.049c-.912 2.311-.993 4.435-.245 6.372-1.643 1.774-2.465 3.922-2.465 6.445 0 1.302.114 2.495.341 3.577.228 1.082.538 2.01.928 2.783.39.773.875 1.465 1.453 2.075a8.862 8.862 0 0 0 1.806 1.49c.627.382 1.335.712 2.124.988.79.277 1.539.489 2.247.635.708.147 1.485.26 2.331.342-1.335.911-2.002 2.36-2.002 4.346v3.82a20.932 20.932 0 0 1-8.853-5.282A20.93 20.93 0 0 1 4.403 25a20.933 20.933 0 0 1 6.15-14.846A20.929 20.929 0 0 1 25.4 4.004c2.836 0 5.585.554 8.171 1.648a20.934 20.934 0 0 1 6.676 4.502A20.93 20.93 0 0 1 46.397 25a20.93 20.93 0 0 1-6.15 14.846z" fill-rule="nonzero" fill="#CE0176"/></svg>