<svg viewBox="0 0 207 23" xmlns="http://www.w3.org/2000/svg"><g transform="translate(-1 -1)" fill="#CE0176" fill-rule="evenodd"><rect transform="rotate(-37 9 8)" y="6" width="18" height="4" rx="2"/><rect transform="scale(1 -1) rotate(-37 -41.808 0)" y="15" width="18" height="4" rx="2"/><rect transform="scale(-1 1) rotate(-37 0 605.737)" x="191" y="6" width="18" height="4" rx="2"/><circle cx="16.5" cy="12.5" r="2.5"/><circle cx="27.5" cy="12.5" r="2.5"/><circle cx="38.5" cy="12.5" r="2.5"/><circle cx="49.5" cy="12.5" r="2.5"/><circle cx="60.5" cy="12.5" r="2.5"/><circle cx="71.5" cy="12.5" r="2.5"/><circle cx="82.5" cy="12.5" r="2.5"/><circle cx="93.5" cy="12.5" r="2.5"/><circle cx="104.5" cy="12.5" r="2.5"/><circle cx="115.5" cy="12.5" r="2.5"/><circle cx="126.5" cy="12.5" r="2.5"/><circle cx="137.5" cy="12.5" r="2.5"/><circle cx="148.5" cy="12.5" r="2.5"/><circle cx="159.5" cy="12.5" r="2.5"/><circle cx="170.5" cy="12.5" r="2.5"/><circle cx="181.5" cy="12.5" r="2.5"/><circle cx="192.5" cy="12.5" r="2.5"/><rect transform="rotate(143 200 17)" x="191" y="15" width="18" height="4" rx="2"/></g></svg>