<svg xmlns="http://www.w3.org/2000/svg" viewBox="0 0 1073 814"><path d="M511.2 624.3c4.7-5.7 9.9-11 15.4-15.5 19.5-16 48.4-39.4 62.7-45.8 14.3-6.8 27.6-7.4 34.7 2.4 7.2 9.9 18.4 35.4 26.4 31.1 8.1-4.3 6.2-8.3.7-24-5.6-15.7-8.1-30.7 4-30.4 11.5.3 25.5-.3 36.3-10.5 10.9-10.1 14.9-14.7 29.8-7 14.9 7.6 52.2 37.1 64 50.7 11.8 13.5 41.9 77.7 69.5 63.3 14.6-7.7-22.3-63.6-34.1-68.9-11.8-5.2-32.9-21.2-46.6-30.7-2.8-1.8-5.9-4.3-9.3-7.1 17.4 12.3 51.2 35.4 62.7 12.3 5.3-10.4-2.2-19.9-10.6-25.5-16.1-10.4-34.4-18.4-51.2-27.6-19.5-10.5-39.1-20.9-58.7-31.4-1.5-4.6-2.4-8.6-2.4-12.3 39.1-9.8 80.1-12.9 120.4-8 24.5 3.1 48.8 9 72 16.9 17.4 6.2 35.7 13 53.8 5.3 36.6-15.4 19.2-59.6-14.3-65.2-22.4-3.7-46.6 5.6-68.3 9.6-25.2 4.6-50.6 7.9-76.1 10.1-21.1 1.8-41.9 2.8-63 2.8 1.2-7.4-1.3-16.9-7.2-27.1-4.3-7.4-8.3-14.7-12.1-22.1 21.5 1.2 42.9 2.5 64.3 4 12.7.9 58.7 7.1 51.5-20-2.1-8.9-10.8-12.3-19.5-12.6-16.5-.6-34.2 3.1-50.3 4.6-18.3 1.9-36.3 3.7-54.7 5.3-.6-1.6-1.2-2.8-1.5-4.3-4.7-13-28.9-18.2-26.1-42.5.9-8.2.6-17.8 1.9-26.1 22.9-17.5 46.2-34.1 69.8-50.4 79.5-38.1 163.6-66.6 250.3-84.8 23.2-4.9 56.5-5.2 71.1-26.7 11.8-16.6 6.5-40.6-14.9-45.8-24.3-6.1-51.9 12-73 20.9-32.9 14.4-65.8 28.9-99 43.3-36.4 16-72.7 32-108.7 47.7-23.3 2.7-44.7 11.9-65.5 23-6.5-1.5-13.7-1.2-20.5-1.2-9 .3-21.1 2.1-25.5-8.6 14.6-12 34.2-20 50.3-26.8 20.5-8.3 52.2-20.5 45.1-48.5-2.5-9.5-10-16.6-20.2-17.5-12.4-.9-22.7 7.7-31.4 15.3-19.2 17.2-38.5 34.5-57.4 51.7-.9-1-1.9-1.9-2.5-3.1-5.9-8-6.8-19.1 3.1-27.7 9.9-8.6 19.9-51.3 10.6-45.7-9.4 5.2-23.9 16.2-28.3 23.6-4.3 7.4-5.6 16.6-19.2 13.8-13.7-2.7-25.8-4-32.6-15.9-.7-1.3-1.3-2.2-1.9-3.1 5.9-12 12.1-23.7 18-35.7 10.9-11.3 22.7-21.5 34.8-31.6 7.7-6.5 14.9-14.1 14.3-24.6-.4-8.6-5.9-16.9-14.9-18.7-10.9-1.9-18.4 6.7-23.3 14.7-10 16.6-18.7 34.1-27.4 51.9-8.6 9.3-16.4 19.1-23.9 29.2-9-1.5-17-2.7-18-13.2-1.2-12.6-4.3-21.8-13.9-22.4-9.3-.6-12.1 6.8-16.5 11.4-4.3 4.6-7.1 12.6-22.7 13.2-4 0-7.7.3-10.8.6-3.1-.3-6.5-.6-10.9-.6-15.5-.6-18.3-8.6-22.6-13.2-4.4-4.6-7.2-12-16.5-11.4-9.3.6-12.7 9.8-14 22.4-.9 10.5-9 11.4-17.7 12.9-3.1-12-4.9-25.5-8.4-30.4-6.8-8.9-20.1-14.7-31.3-10.4-11.5 4.6-14.6 16.9-10.3 27.6 3.2 8 10 13.5 14 21.2 3.1 5.9 4.1 12.3 3.1 18.8-6.5 4-14.9 5.2-23.9 7-13.6 2.8-14.9-6.4-19.2-13.8-4.4-7.4-19.3-18.4-28.3-23.7-9.3-5.2-18.6-2.4-22 11.1-3.4 13.5 22.3 26.4 32.6 35 9.9 8.6 9.3 19.7 3.1 27.7-5.6 7.7-11.2 8.9-14.3 21.8-38.5-4.9-75.1-21.2-108.4-41.8-24.8-15.3-48.1-32.9-71.4-49.8-14.6-10.7-37.5-34.1-57.7-30.1-17.1 3.4-20.8 23.7-12.4 36.9 5.6 8.3 14.9 12.9 23.9 17.2 13 6.2 26.1 11.7 39.1 17.5l81 36.3c14 6.1 28 12.6 41.6 18.7 5.9 2.8 12.1 5.2 18 8.3 1.6.6 2.8 1.6 4.4 2.5-5 .6-9.9 1.5-14.3 4.3-8.4 4.9-4 5.8-12.7 8.6-8.7 2.7-18.3 1.2-22.4 13.8-4 12.3 13.7 20.9 23.3 22.4 9.6 1.6 12.1.7 32.9 4 17.4 2.8 17.7 20.9 18.3 37.5-16.1 3.4-34.7.9-50-.6-26.7-3.1-53.4-5.8-80.4-8.9-28.5-3.1-57.4-6.5-86-9.5-16.4-1.9-40.6-6.5-49 12.6-6.5 15.3 6.5 26.7 21.1 27.6 11.8.9 23.9-1.5 35.7-2.4 14.3-1 28.6-1.6 42.8-1.6 28-.3 55.9 1.3 83.6 4.6 8.7 1 59.6 6.2 62.7 21.9-2.5 2.4-4.7 5.2-5.9 8.3-4.7 12.9-13.4 28.8-22.7 45.1-9.3 16-10.5 30.4-.9 37.8 9.3 7.7 15.8 4.3 17.7 15.1 1.8 10.7-8.1 31.9-20.8 48.2-12.8 16.3-35.1 36-48.8 45.8-13.6 9.8-34.7 25.5-46.5 30.7-11.8 5.3-28.6 18.2-37.6 32.3-9 14.4-11.2 28.9 3.4 36.6 27.6 14.4 36.6-15.4 43.2-28.9 6.8-13.5 14.6-20.9 26.4-34.4 11.8-13.6 48.7-43.1 63.9-50.7 14.9-7.7 19.3-3.1 29.8 7 10.9 10.2 24.5 10.8 36.3 10.5 12.1-.3 9.4 14.7 4.1 30.4-5.6 15.7-7.5 19.7.6 24 8.1 4.3 19.6-21.2 26.4-31.1 7.1-9.8 20.5-9.2 34.8-2.4.9.3 1.5.9 2.4 1.2 2.5 11.4 1.9 23-1.8 34.1-1 1.2-1.6 2.5-2.5 3.7-2.8 4.3-5 8.9-6.8 13.8-3.5 4.6-7.8 8.6-12.5 12.3-9.9 7.4-21.1 13.2-25.7 25.2-3.7 9.5-2.8 21.5 5.3 28.6 7.7 6.7 18.6 6.4 27.3 1.5 12.4-7.4 15.5-20.9 17.1-34.4.9-9.8 3.1-19 6.8-27.7 2.5-3.9 4.6-7.9 6.5-12.5 3.1-5.3 7.1-9.6 11.8-13.9 8.7.3 16.1 9.5 17.7 17.8 2.2 13-4.4 26.8-9.3 38.1-10 23.1-20.5 45.8-30.4 68.9-10 22.4-23.6 45.8-30.5 69.1-3.7 12.9 3.8 26.4 18.7 24.6 17.3-2.5 19.5-20 21.1-34.1 2.5-21.2 6.8-42.4 13.3-62.7 10.9-33.2 27.3-64.2 48.4-92.2.4.6.8 1.1 1.2 1.6.1-.6.2-1.1.4-1.7 24.2 13.9 51.4 14 81.5.3z" fill="#009DC9"/></svg>